<svg xmlns="http://www.w3.org/2000/svg" xmlns:xlink="http://www.w3.org/1999/xlink" width="1917" height="605" viewBox="0 0 1917 605"><defs><style>.a{clip-path:url(#s);}.b{fill:#fff;}.c{fill:#a5815f;}.d{fill:#100c4b;}.e{fill:#3c4d85;}.f{fill:#a37f5d;}.g{fill:#055248;}.h{fill:#3a424c;}.i{fill:url(#e);}.j{fill:none;stroke:#3c0c72;stroke-linecap:round;stroke-linejoin:round;stroke-width:3px;}.k{filter:url(#p);}.l{filter:url(#n);}.m{filter:url(#l);}.n{filter:url(#j);}.o{filter:url(#h);}.p{filter:url(#f);}.q{filter:url(#c);}.r{filter:url(#a);}</style><filter id="a" x="166" y="325" width="743" height="292" filterUnits="userSpaceOnUse"><feOffset dy="3" input="SourceAlpha"/><feGaussianBlur stdDeviation="3" result="b"/><feFlood flood-opacity="0.161"/><feComposite operator="in" in2="b"/><feComposite in="SourceGraphic"/></filter><filter id="c" x="1509.089" y="55.67" width="108.532" height="149.174" filterUnits="userSpaceOnUse"><feOffset dy="3" input="SourceAlpha"/><feGaussianBlur stdDeviation="3" result="d"/><feFlood flood-opacity="0.161"/><feComposite operator="in" in2="d"/><feComposite in="SourceGraphic"/></filter><linearGradient id="e" x1="0.102" y1="0.277" x2="0.809" y2="0.954" gradientUnits="objectBoundingBox"><stop offset="0" stop-color="#dea200"/><stop offset="0.3" stop-color="#f7f7f7"/><stop offset="0.655" stop-color="#2e6e00"/><stop offset="1" stop-color="#c90000"/></linearGradient><filter id="f" x="1473.554" y="186.684" width="30.036" height="31.197" filterUnits="userSpaceOnUse"><feOffset dy="3" input="SourceAlpha"/><feGaussianBlur stdDeviation="3" result="g"/><feFlood flood-opacity="0.161"/><feComposite operator="in" in2="g"/><feComposite in="SourceGraphic"/></filter><filter id="h" x="1463.136" y="-5.468" width="162.235" height="400.968" filterUnits="userSpaceOnUse"><feOffset dy="3" input="SourceAlpha"/><feGaussianBlur stdDeviation="3" result="i"/><feFlood flood-opacity="0.161"/><feComposite operator="in" in2="i"/><feComposite in="SourceGraphic"/></filter><filter id="j" x="1041" y="325" width="743" height="292" filterUnits="userSpaceOnUse"><feOffset dy="3" input="SourceAlpha"/><feGaussianBlur stdDeviation="3" result="k"/><feFlood flood-opacity="0.161"/><feComposite operator="in" in2="k"/><feComposite in="SourceGraphic"/></filter><filter id="l" x="-41" y="382" width="365" height="235.001" filterUnits="userSpaceOnUse"><feOffset dy="3" input="SourceAlpha"/><feGaussianBlur stdDeviation="3" result="m"/><feFlood flood-opacity="0.161"/><feComposite operator="in" in2="m"/><feComposite in="SourceGraphic"/></filter><filter id="n" x="796" y="382" width="365" height="235.001" filterUnits="userSpaceOnUse"><feOffset dy="3" input="SourceAlpha"/><feGaussianBlur stdDeviation="3" result="o"/><feFlood flood-opacity="0.161"/><feComposite operator="in" in2="o"/><feComposite in="SourceGraphic"/></filter><filter id="p" x="1593" y="382" width="365" height="235.001" filterUnits="userSpaceOnUse"><feOffset dy="3" input="SourceAlpha"/><feGaussianBlur stdDeviation="3" result="q"/><feFlood flood-opacity="0.161"/><feComposite operator="in" in2="q"/><feComposite in="SourceGraphic"/></filter><clipPath id="s"><rect width="1917" height="605"/></clipPath></defs><g id="r" class="a"><g transform="translate(-6 -477)"><g class="r" transform="matrix(1, 0, 0, 1, 6, 477)"><path class="b" d="M-1081-1621h-.5a97.5,97.5,0,0,1-97.5-97.5,97.543,97.543,0,0,1,72.833-94.353A97.526,97.526,0,0,1-1016.5-1872a97.106,97.106,0,0,1,62.048,22.289A108.865,108.865,0,0,1-866-1895a108.869,108.869,0,0,1,89.391,46.612A119.516,119.516,0,0,1-723-1861a119.5,119.5,0,0,1,76.371,27.436A87.425,87.425,0,0,1-573.5-1873a87.5,87.5,0,0,1,87.5,87.5,88.411,88.411,0,0,1-.6,10.339A86.336,86.336,0,0,1-454-1707.5a86.5,86.5,0,0,1-86,86.5h-541Z" transform="translate(1354 2226)"/></g><g transform="translate(-2335 -2492)"><path d="M4270.331,3999v-1.372l2.345-3.808.551-3.787.675-3.3-1.226-2.277-1.939-2.61-.406-5.429-.9-3.963-1.7-5.993-1.4-5.979-1.354-5.765-1.564-7.837-1.2-2.216-.543-5.522-1.125-3.654-1.216-3.649v-2.39l-1.316-1.965-1.5-1.008-1.241-2.91-.625-4.291v-2.146l-1.653-4.393-.412-3.97-1.155-4.652-.613-4.4-.544-4.454-1.468-4.657v-6l-1.057-5.888-1.355-6.158-.521-3.7-1.185-5.458-.795-6.219-.575-16.769v-5.988l-.776-1.5.776-1.928-.776-2.086.776-2.48,1.37-2.5-.795-2.519-.575-4.1v-5.826l-.776-9.97V3793.9l-4.522,4.977-12.492,16.729-1.632,1.7v2.1l.464,2.632-.464,1.888-1.023.771v1.731l-1.1,2.48-.5,2.086-.82,1.928-1.231,2-1.072,1.343-.687,1.412-.693,2.738v1.335l.693,1.29h2.99v.954l.82.573-.82,1.373-1.715,1.627h-1.968l-2.886.59-2.037-.59h-2.461l-.7-1.045-2.427-.581-.823-1.373v-1.527l-1.243-1.733-.488-2.154-.441-2.275v-3.122l-.628-2.212.628-1.9,1.458-2.21,1.537-2.172,1.914-3.217,1.209-.631.805-1.085.934-.916,1.261-2.1v-1.7a29.3,29.3,0,0,1-.54-3.574c.014-.875.03-.96.54-1.369a.9.9,0,0,1,1.258,0,.835.835,0,0,1,.239.82v1.869l1.792-4.979.615-2.72,1.171-3.6,2.187-3.659,1.623-3.878.5-3.277,1.1-2.7,1.023-5.321.965-1.9v-3.7l1.632-2.412.507-3.2,1.162-1.869.731-3.519v-3.758l.982-4.577a20.291,20.291,0,0,1,0-4.34,25.051,25.051,0,0,1,1.06-4.5l.739-5.514V3737.5a50.447,50.447,0,0,1,0-5.714c.177-3.244.707-7.263.707-7.263s-.369-4.545-.287-9-.216-5.092.614-8.824a24.5,24.5,0,0,1,2.288-6.271l1.611-4.257,2.3-3.056,2.5-1.867,2.181-1.314,2.653-2.357,3.262-2.872s-1.793-1.485-1.934-1.561a2.023,2.023,0,0,1-1.1-1.407c-.261-1.026.19-1.288-.229-2.591a10,10,0,0,0-1.674-2.693c-.418-.673-1.858-2.885-1.858-2.885l-1.3-1.09-1.528-1.294-2.034-.958-2.1-1.24a4.826,4.826,0,0,1-1.53-1.5,4.289,4.289,0,0,1-.43-2.02v-2.514l.43-1.781.775-.923v-1.6a6.865,6.865,0,0,1-.406-1.924,2.54,2.54,0,0,1,.406-1.385l.754-.927a4.929,4.929,0,0,1,0-1.854,1.878,1.878,0,0,1,.856-1.058l1.242-.843.533-1.148a4.354,4.354,0,0,1-1.054-1.164c-.263-.552-.13-.824,0-1.446s.125-.463.521-1.041a2.811,2.811,0,0,1,1.059-.87l1.479-.477,1.462-.28,1.3-.611,1.426-.714,1.081-.769a9.421,9.421,0,0,1,.594-1.819,11.82,11.82,0,0,1,1.044-1.767,3.116,3.116,0,0,1-1.638,0,4.442,4.442,0,0,1-1.522-1.017,6.618,6.618,0,0,1-.984-1.122,15.082,15.082,0,0,1-.959-1.654,11.769,11.769,0,0,1-.774-1.811,14.432,14.432,0,0,1-.82-3.019,12.674,12.674,0,0,1,0-3.007s.258-1.6.6-3.117.781-2.937.781-2.937.236-1.31.885-1.681,1.711.2,1.711.2l2.718,1.483,10.206,5.208,4.009-.577a18.267,18.267,0,0,1,3.666-.756,20.55,20.55,0,0,1,5.2-.234,14.871,14.871,0,0,1,4.419.99,33.077,33.077,0,0,1,3.893,1.422l.054.032a23.267,23.267,0,0,1,4.062,2.4,35.283,35.283,0,0,1,3.961,3.594,26.1,26.1,0,0,1,2.443,3.06,11.13,11.13,0,0,1,1.9,3.467,17.538,17.538,0,0,1,1.312,4.916,30.124,30.124,0,0,1,.529,6.322,7.585,7.585,0,0,1-.529,3.536,16.859,16.859,0,0,1-1.312,3.094,38.072,38.072,0,0,1-1.9,4.5,23.042,23.042,0,0,1-2.443,3.622s-1.817,2.877-3.217,3.522-2.385-.94-2.385-.94l-1.493.94-.981,1.24v1.606a7.485,7.485,0,0,1,.688,1.94,18.355,18.355,0,0,1,.293,2.681l.444,2.693,2.14.777,2.785,1.74a13.386,13.386,0,0,1,3.152.4,5.605,5.605,0,0,1,2.125,1.184l2.726,1.455,2.05,2.232,2.479,3,3.442.845,3.8.593,4.365,1.351,3.854,2.365,2.944,3.5,3.744,3.607,2.681,4.744,1.185,3.891a12.162,12.162,0,0,1,.913,2.7,10.286,10.286,0,0,1,.316,3.671,14.709,14.709,0,0,1-.625,3.362l-1.022,3.525v2.688l2.6,3.215,1.958,3.653,1.728,4.551,2.49,5.078,3.035,6.859,1.364,3.763,1.611,3.8.469,2.8v9.761l-.892,3v6.255l-.422,4.78-1.344,4.091-.409,2.512-.988,3.1v1.885l.988,3.713-.441,1.955-1.954,2.7-1.581,1.614-3.205,1.146v2.683l.729,3.684,1.221,3.467.621,2.606.634,1.6,2.016,1.195,2.37,1.362,2.353,2.023,2.094,2.145,1.955,2.671,1.146,2.77.564,3.264-.564,2.078.564,1.849v1.78l-.564,1.691-1.146,1.208.579,1.5v1.352l-1.555.936-1.49.954-1.582-.954-1.427-.455v1.409l1.427.92,2.486,1.993v2.414l.586,1.245v.666l-.586.561-2.486,22.667v2.171l-.5,2.65-.932,2.337-2.011,1.418-3.1,1.566h-3.029l-2.878-.428-3.188-1.9-1.961-2.488-.588-1.815-.745-2.548v-3.129l.745-1.291,3.844-23.14-1.917-1.932-1.151-1.015-.776-3.663-1.212-2.619-1.022-2.278.425-3.629-.425-6.4.425-6.532-1.148-3.385-.543-4.649-.532-6.993H4314.8l1.092,12.392-.432,2.112-.66,2.668-.865,2.155-1.113,3.913-1.192,4.716-1.314,3.629-1.505,3.573-1.587,2.658-.473,4.322v3.039l-1.551,2.42-.5,4.51v5.2l-.953,6.488-1.19,4.262-2.2,7.358-1.39,4.421-1.786,3.3-.487,4.349-.68,6.068-.927,3.625.927,1.668.68,4.912v4.382l-1.129,3.113,1.616,1.715.4,2.39-.4,2.566,1.391,1.807.5,1.51.405,3.649.465,5.011v8.613l-.465,5.035v3.756l-.405,2.578.405,3.061-.405,2.27v3.036l.405,2.433-.9,2.522.5,3.28.871,2.553v3.295l-1.368,1.523v7.608l.5,1.121.871-.517h1.142v1.149l.531,1.22.633,1.845,1.346,1.556V3999Z" transform="translate(-388 -648)"/><path class="c" d="M3904.119,3027.452l-4.078,3.573a7.093,7.093,0,0,1-1,3.383,31.5,31.5,0,0,1-3.267,4.481l-1.172,2.195-3.591,1.286h-3.068l-1.5,1.661v1.365l1.5.837-1.5,2.388-1.649,1.315v1.468l-1.28,2.043v1.857l.574,1.831-.574,1.692-.752,2.183.752,3.033,2.09,2.329h2.334l1.968,1.963,1.969,2.657,1.725,2.811,1.654,3.649.515,2.4,2.681,1.611.7,1.364,4.956-2.975,5.67-4.552,15.651-.655.881-1.5-7.957-11.538,1.7-5.444,2.5-2.717,1.317-3.511-1.914-2.709-1.905-.993h-1.7l-1.895.993-1.332,1.395-2.776,1.315-2.572-1.315-2.772,1.315,1.315-4.54,2.735-3.792-2.735-2.715v-2.4l1.457-3.457,1.279-2.58Z" transform="translate(-38 -45)"/><path class="d" d="M3931.059,3066.467l-17.079-35.528-10.489-4.021-4.889,6-4.119,1.835-2.152-1.835-1.55-2.62-1.11-3.378v-4.388l1.11-4.957,1.55-1.4,14.934,7.75,3.942-.78,3.31-.608,4.856-.442,4.815,1.05,4.674,1.779,4.422,2.7,3.464,3.912,2.842,3.847,1.814,3.9.766,4.033v5.794l-.766,4.671-2.262,5.006-2.393,4.3-3.464,3.995-1.653.773Z" transform="translate(-37 -45)"/><path class="c" d="M3872.085,3187.151l-10.857,29.334-5.249,5.722-4.024,7.669.657,8.1,2.155,5.253,5.013,2.464h8.3l1.356-4.124-3.487-.563-.646-4.213,3.615-5,3.166-9.584.987-6.982,15.8-21.6Z" transform="translate(-37 -46)"/><path class="e" d="M3944.68,3086.752l-11.9-8.044-7.283-4.658a9.291,9.291,0,0,0-4.411-1.071,51.9,51.9,0,0,0-11.509,1.071c-2.746.773-5.427,4.658-5.427,4.658l-4.072,3.12-6.089,3.969-7.554,5.852-2.548,6.681-2,4.781v8.745l-1.439,14.27v21.739l-1.746,9.42-2.082,12.928-4.873,14.655v2.885l2.637,2.793,3.153,1.44,3.62,1.356,4.278.411h3.129l2.319-1.767.917-.767-.364,5.237v5.23l.364,7.528.344,7.253,1.1,5.911-1.812,4.358.708,2.932-.708,1.589.708,1.582.362,5.544s.441-1.1,3.808-1.988,2.786-.158,9.66-1.563,5.493-.515,17.836-4.059,21.293-7.588,31.537-10.118,9.438,0,9.438,0l-.72-12.184Z" transform="translate(-37 -46)"/><path class="f" d="M3966.025,3208.9l1.748,14.39,1.958,2.468-1.152,4.407v7.915l.459,3.83,4.091,10,12.256-4.427,3.439.558,3.2-2.179.273-3.249.4-2.929-.4-3.687.4-2.981-1.72-5.346-5.584-5.481-5.191-3.428-2.833-14.028Z" transform="translate(-38 -47)"/><g class="q" transform="matrix(1, 0, 0, 1, 2341, 2969)"><path class="g" d="M3897.981,3083.676l6.886-5.31,4.363-.7h3.943l6,2.128,4.769,2.5,3.414,3.147,2.305,2.716,5.368-.693,4.993-.507h4.368l2.393.507,4.027,1.183,3.6.568,3.708,1.613,3.955,2.266,2.963,3.685,4,3.374,2.45,4.575,1.545,4.38,1.059,3.96v3.578l-1.059,3.586-.682,2.564v2.027l1.741,2.172,4.2,8.43,6.082,12.933,2.574,7.26.669,2.875v9.4l-1.265,3.176v6.043l-.491,4.936-1.016,4.005-.471,3.151-1.482,3.083,1.482,5.223-.6,2.548-1.874,2.437-1.866,1.447-3.219.891-3.1,1.564-2.691,1.187-5.016,1.256h-7.87l-6.407-1.256-6.823-1.935-4.645-3.154-2.3-4.377-8.678-8.912-2.4-3.151v-4.378l1.634-2.974,1.878-2.137,2.626-1.4v-4.1l2.274-4.8,1.046-8.617.4-5.919.629-4.147,4.114-15.057-6.188-13.706-2.019-7.543V3104.3l-4.029-9.553-5.321-3.534-4.22-3.742-5.8-2.572-5.531-1.653h-3.526l-3.585.833h-4.192Z" transform="translate(-2379 -3016)"/></g><path class="h" d="M3973.928,3249.958l1.558-1.951.948-2.939,3.883-1.721,3.5.936,1.792,1.95.444,1.775,3.444,2.742v2.5l.948,1.6-.948,1.111-2.374,22.554v2.713l-.541,2.588-1.362,2.145-2.336,1.435-2.563.993h-3.481l-2.908-.993-2.668-2.182-1.478-2.8v-4.3Z" transform="translate(-38 -46)"/><g class="p" transform="matrix(1, 0, 0, 1, 2341, 2969)"><path class="i" d="M3989.786,3164.684c1.125.221.466,2.491,1.307,4.305a7.1,7.1,0,0,0,2.059,2.951,15.29,15.29,0,0,0,3.238,2.753,5.363,5.363,0,0,0,2.4,1.17c.893.251,1.168-.167,1.766.492a3.347,3.347,0,0,1,0,.869.745.745,0,0,1-.277.468s-.247.244-1.32.176a5.654,5.654,0,0,1-2.573-.644,6.369,6.369,0,0,1-2.462-1.361c-1.148-.964-.98-.849-2.11-1.916a7.913,7.913,0,0,1-2.032-2.491,14.148,14.148,0,0,1-.9-2.468,17.082,17.082,0,0,1-.33-3.274C3988.594,3164.724,3989.209,3164.728,3989.786,3164.684Z" transform="translate(-2506 -2972)"/></g><g class="o" transform="matrix(1, 0, 0, 1, 2341, 2969)"><path class="j" d="M4270.331,3999v-1.372l2.345-3.808.551-3.787.675-3.3-1.226-2.277-1.939-2.61-.406-5.429-.9-3.963-1.7-5.993-1.4-5.979-1.354-5.765-1.564-7.837-1.2-2.216-.543-5.522-1.125-3.654-1.216-3.649v-2.39l-1.316-1.965-1.5-1.008-1.241-2.91-.625-4.291v-2.146l-1.653-4.393-.412-3.97-1.155-4.652-.613-4.4-.544-4.454-1.468-4.657v-6l-1.057-5.888-1.355-6.158-.521-3.7-1.185-5.458-.795-6.219-.575-16.769v-5.988l-.776-1.5.776-1.928-.776-2.086.776-2.48,1.37-2.5-.795-2.519-.575-4.1v-5.826l-.776-9.97V3793.9l-4.522,4.977-12.492,16.729-1.632,1.7v2.1l.464,2.632-.464,1.888-1.023.771v1.731l-1.1,2.48-.5,2.086-.82,1.928-1.231,2-1.072,1.343-.687,1.412-.693,2.738v1.335l.693,1.29h2.99v.954l.82.573-.82,1.373-1.715,1.627h-1.968l-2.886.59-2.037-.59h-2.461l-.7-1.045-2.427-.581-.823-1.373v-1.527l-1.243-1.733-.488-2.154-.441-2.275v-3.122l-.628-2.212.628-1.9,1.458-2.21,1.537-2.172,1.914-3.217,1.209-.631.805-1.085.934-.916s.911-1.577.959-1.544a6.691,6.691,0,0,1-1.624-5.042l.261-2.706,1.363-1.741a2.57,2.57,0,0,1,2.521,1.25c.645.9-.238,3.318.381,4.211l.69-5.461.615-2.72,1.171-3.6,2.187-3.659,1.623-3.878.5-3.277,1.1-2.7,1.023-5.321.965-1.9v-3.7l1.632-2.412.507-3.2,1.162-1.869.731-3.519v-3.758l.982-4.577a20.291,20.291,0,0,1,0-4.34,25.051,25.051,0,0,1,1.06-4.5l.739-5.514V3737.5a50.447,50.447,0,0,1,0-5.714c.177-3.244.707-7.263.707-7.263s-.369-4.545-.287-9-.216-5.092.614-8.824a24.5,24.5,0,0,1,2.288-6.271l1.611-4.257,2.3-3.056,2.5-1.867,2.181-1.314,2.653-2.357,3.262-2.872s-1.793-1.485-1.934-1.561a2.023,2.023,0,0,1-1.1-1.407c-.261-1.026.19-1.288-.229-2.591a10,10,0,0,0-1.674-2.693c-.418-.673-1.858-2.885-1.858-2.885l-1.3-1.09-1.528-1.294-2.034-.958-2.1-1.24a4.826,4.826,0,0,1-1.53-1.5,4.289,4.289,0,0,1-.43-2.02v-2.514l.43-1.781.775-.923v-1.6a6.865,6.865,0,0,1-.406-1.924,2.54,2.54,0,0,1,.406-1.385l.754-.927a4.929,4.929,0,0,1,0-1.854,1.878,1.878,0,0,1,.856-1.058l1.242-.843.533-1.148a4.354,4.354,0,0,1-1.054-1.164c-.263-.552-.13-.824,0-1.446s.125-.463.521-1.041a2.811,2.811,0,0,1,1.059-.87l1.479-.477,1.462-.28,1.3-.611,1.426-.714,1.081-.769a9.421,9.421,0,0,1,.594-1.819,11.82,11.82,0,0,1,1.044-1.767,3.116,3.116,0,0,1-1.638,0,4.442,4.442,0,0,1-1.522-1.017,6.618,6.618,0,0,1-.984-1.122,15.082,15.082,0,0,1-.959-1.654,11.769,11.769,0,0,1-.774-1.811,14.432,14.432,0,0,1-.82-3.019,12.674,12.674,0,0,1,0-3.007s.258-1.6.6-3.117.781-2.937.781-2.937.236-1.31.885-1.681,1.711.2,1.711.2l2.718,1.483,10.206,5.208,4.009-.577a18.267,18.267,0,0,1,3.666-.756,20.55,20.55,0,0,1,5.2-.234,14.871,14.871,0,0,1,4.419.99,33.077,33.077,0,0,1,3.893,1.422l.054.032a23.267,23.267,0,0,1,4.062,2.4,35.283,35.283,0,0,1,3.961,3.594,26.1,26.1,0,0,1,2.443,3.06,11.13,11.13,0,0,1,1.9,3.467,17.538,17.538,0,0,1,1.312,4.916,30.124,30.124,0,0,1,.529,6.322,7.585,7.585,0,0,1-.529,3.536,16.859,16.859,0,0,1-1.312,3.094,38.072,38.072,0,0,1-1.9,4.5,23.042,23.042,0,0,1-2.443,3.622s-1.817,2.877-3.217,3.522-2.385-.94-2.385-.94l-1.493.94-.981,1.24v1.606a7.485,7.485,0,0,1,.688,1.94,18.355,18.355,0,0,1,.293,2.681l.444,2.693,2.14.777,2.785,1.74a13.386,13.386,0,0,1,3.152.4,5.605,5.605,0,0,1,2.125,1.184l2.726,1.455,2.05,2.232,2.479,3,3.442.845,3.8.593,4.365,1.351,3.854,2.365,2.944,3.5,3.744,3.607,2.681,4.744,1.185,3.891a12.162,12.162,0,0,1,.913,2.7,10.286,10.286,0,0,1,.316,3.671,14.709,14.709,0,0,1-.625,3.362l-1.022,3.525v2.688l2.6,3.215,1.958,3.653,1.728,4.551,2.49,5.078,3.035,6.859,1.364,3.763,1.611,3.8.469,2.8v9.761l-.892,3v6.255l-.422,4.78-1.344,4.091-.409,2.512-.988,3.1v1.885l.988,3.713-.441,1.955-1.954,2.7-1.581,1.614-3.205,1.146v2.683l.729,3.684,1.221,3.467.621,2.606.634,1.6,2.016,1.195,2.37,1.362,2.353,2.023,2.094,2.145,1.955,2.671,1.146,2.77.564,3.264-.564,2.078.564,1.849v1.78l-.564,1.691-1.146,1.208.579,1.5v1.352l-1.555.936-1.49.954-1.582-.954-1.427-.455v1.409l1.427.92,2.486,1.993v2.414l.586,1.245v.666l-.586.561-2.486,22.667v2.171l-.5,2.65-.932,2.337-2.011,1.418-3.1,1.566h-3.029l-2.878-.428-3.188-1.9-1.961-2.488-.588-1.815-.745-2.548v-3.129l.745-1.291,3.844-23.14-1.917-1.932-1.151-1.015-.776-3.663-1.212-2.619-1.022-2.278.425-3.629-.425-6.4.425-6.532-1.148-3.385-.543-4.649-.532-6.993H4314.8l1.092,12.392-.432,2.112-.66,2.668-.865,2.155-1.113,3.913-1.192,4.716-1.314,3.629-1.505,3.573-1.587,2.658-.473,4.322v3.039l-1.551,2.42-.5,4.51v5.2l-.953,6.488-1.19,4.262-2.2,7.358-1.39,4.421-1.786,3.3-.487,4.349-.68,6.068-.927,3.625.927,1.668.68,4.912v4.382l-1.129,3.113,1.616,1.715.4,2.39-.4,2.566,1.391,1.807.5,1.51.405,3.649.465,5.011v8.613l-.465,5.035v3.756l-.405,2.578.405,3.061-.405,2.27v3.036l.405,2.433-.9,2.522.5,3.28.871,2.553v3.295l-1.368,1.523v7.608l.5,1.121.871-.517h1.142v1.149l.531,1.22.633,1.845,1.346,1.556V3999Z" transform="translate(-2729 -3617)"/></g></g><g class="n" transform="matrix(1, 0, 0, 1, 6, 477)"><path class="b" d="M98,0h-.5A97.514,97.514,0,0,0,72.833,191.853a97.531,97.531,0,0,0,151.716,36.858,109.02,109.02,0,0,0,177.842-1.322,120.107,120.107,0,0,0,129.981-14.824A87.507,87.507,0,0,0,693,164.5a88.4,88.4,0,0,0-.6-10.339A86.5,86.5,0,0,0,639,0H98Z" transform="translate(1775 605) rotate(180)"/></g><g class="m" transform="matrix(1, 0, 0, 1, 6, 477)"><path class="b" d="M-1102-1678a77,77,0,0,1-77-77,77,77,0,0,1,77-77,77.308,77.308,0,0,1,16.2,1.707A108.529,108.529,0,0,1-986.5-1895a108.526,108.526,0,0,1,100,66.341A77.031,77.031,0,0,1-832-1755a77,77,0,0,1-77,77Z" transform="translate(1147 2283)"/></g><g class="l" transform="matrix(1, 0, 0, 1, 6, 477)"><path class="b" d="M77,0A77,77,0,1,0,93.2,152.294a108.546,108.546,0,0,0,199.3-1.634A77.013,77.013,0,0,0,270,0Z" transform="translate(1152 605) rotate(180)"/></g><g class="k" transform="matrix(1, 0, 0, 1, 6, 477)"><path class="b" d="M77,217A77,77,0,1,1,93.2,64.707a108.546,108.546,0,0,1,199.3,1.634A77.013,77.013,0,0,1,270,217Z" transform="translate(1602 388)"/></g></g></g></svg>