<svg xmlns="http://www.w3.org/2000/svg" xmlns:xlink="http://www.w3.org/1999/xlink" width="91.275" height="91.254" viewBox="0 0 91.275 91.254"><defs><style>.a{filter:url(#a);}</style><filter id="a" x="0" y="0" width="91.275" height="91.254" filterUnits="userSpaceOnUse"><feOffset dy="3" input="SourceAlpha"/><feGaussianBlur stdDeviation="3" result="b"/><feFlood flood-opacity="0.161"/><feComposite operator="in" in2="b"/><feComposite in="SourceGraphic"/></filter></defs><g class="a" transform="matrix(1, 0, 0, 1, 0, 0)"><path d="M27.582,73.254a7.332,7.332,0,0,1-1.317-.12,7.442,7.442,0,0,1-1.271-.352,7.327,7.327,0,0,1-1.185-.57,7.021,7.021,0,0,1-1.06-.776,6.652,6.652,0,0,1-.894-.969,6.393,6.393,0,0,1-.689-1.15,6.607,6.607,0,0,1-.6-2.789c-.013-6.4,0-12.077,0-12.132l-.034-.014c-1.154-.478-11.415-4.734-16.285-6.8A7.013,7.013,0,0,1,2.5,46.531,6.8,6.8,0,0,1,1.206,45.1,7.089,7.089,0,0,1,.015,41.59,7,7,0,0,1,.734,38a6.7,6.7,0,0,1,1.092-1.566,7.045,7.045,0,0,1,1.595-1.267c2.358-1.378,14.727-8.479,27.823-16l.021-.012C45.639,10.906,60.5,2.373,63.023.893A6.51,6.51,0,0,1,64.634.216,6.377,6.377,0,0,1,66.282,0a6.669,6.669,0,0,1,1.51.175,7.052,7.052,0,0,1,1.43.5,7.295,7.295,0,0,1,2.4,1.841,7.043,7.043,0,0,1,.81,1.167,6.722,6.722,0,0,1,.754,4.347c-.3,1.917-1.306,8.359-2.576,16.515l0,.011v.007c-2.427,15.582-5.751,36.923-6.02,38.46a8.551,8.551,0,0,1-1.254,3.193,6.428,6.428,0,0,1-2.266,2.163,8.906,8.906,0,0,1-1.633.732,3.567,3.567,0,0,1-1.1.142c-.1,0-.206,0-.317,0l-.169,0a4.711,4.711,0,0,1-1.221-.171,11.334,11.334,0,0,1-1.141-.4h0l-.345-.135c-.95-.366-14.472-5.791-16.011-6.409l-.018-.007h0c-.089.13-2.233,3.253-6.035,8.358A7.112,7.112,0,0,1,31.9,71.724a6.647,6.647,0,0,1-2.809,1.367A7.033,7.033,0,0,1,27.582,73.254Zm-.469-16.21v8.929L32.2,59.051ZM53.561,20.7h0a2.29,2.29,0,0,1,1.217.365,2.585,2.585,0,0,1,.885.935,2.279,2.279,0,0,1,.29,1.106,2.24,2.24,0,0,1-.362,1.2c-1.363,2.162-20,28.566-20.184,28.832L57.363,62.35,65.824,7.21,6.405,41.183l15.5,6.493c.271-.237,28.327-24.737,30.24-26.417a2.288,2.288,0,0,1,.7-.426A2.029,2.029,0,0,1,53.561,20.7Z" transform="translate(9 6)"/></g></svg>