<svg xmlns="http://www.w3.org/2000/svg" xmlns:xlink="http://www.w3.org/1999/xlink" width="78" height="77.99" viewBox="0 0 78 77.99"><defs><style>.a{filter:url(#a);}</style><filter id="a" x="0" y="0" width="78" height="77.99" filterUnits="userSpaceOnUse"><feOffset dy="3" input="SourceAlpha"/><feGaussianBlur stdDeviation="3" result="b"/><feFlood flood-opacity="0.161"/><feComposite operator="in" in2="b"/><feComposite in="SourceGraphic"/></filter></defs><g transform="translate(-4223 -2186)"><g class="a" transform="matrix(1, 0, 0, 1, 4223, 2186)"><path d="M.939,59.99v-40.2h12.67v40.2Zm46.479-.116V40.4c.192-4.573.082-10.526-6.282-10.526S33.669,34.891,33.646,40.4V59.874H21.252V19.788H33.245s0,5.576,0,5.609a13.412,13.412,0,0,1,11.936-6.5C57.681,18.9,60,27.221,60,37.928V59.874ZM0,7.235A7.274,7.274,0,1,1,7.273,14.47,7.254,7.254,0,0,1,0,7.235Z" transform="translate(9 6)"/></g></g></svg>