<svg xmlns="http://www.w3.org/2000/svg" xmlns:xlink="http://www.w3.org/1999/xlink" width="1917" height="405" viewBox="0 0 1917 405"><defs><style>.a{clip-path:url(#b);}.b{fill:#62000d;stroke-linecap:round;stroke-linejoin:round;}.c,.d{stroke:none;}.d{fill:#9d1757;}</style><clipPath id="b"><rect width="1917" height="405"/></clipPath></defs><g id="a" class="a"><g class="b" transform="translate(-3156 -4691)"><path class="c" d="M 5074.4404296875 5096.71142578125 L 3155.5 5096.71142578125 L 3155.5 4699.43701171875 L 3167.027587890625 4703.26904296875 L 3167.298828125 4703.359375 L 3167.513916015625 4703.1708984375 L 3171.94970703125 4699.29833984375 L 3186.016357421875 4703.24560546875 L 3195.758056640625 4711.74951171875 L 3195.789794921875 4711.77734375 L 3195.825439453125 4711.79931640625 L 3213.38671875 4722.564453125 L 3213.507080078125 4722.63818359375 L 3213.648193359375 4722.63818359375 L 3229.247802734375 4722.63818359375 L 3229.458251953125 4722.63818359375 L 3229.60546875 4722.48779296875 L 3240.125244140625 4711.72265625 L 3240.267578125 4711.57666015625 L 3240.267578125 4711.373046875 L 3240.267578125 4703.29443359375 L 3249.55615234375 4703.29443359375 L 3264.46875 4711.80712890625 L 3264.583984375 4711.873046875 L 3264.716552734375 4711.873046875 L 3278.4794921875 4711.873046875 L 3293.0234375 4716.69873046875 L 3303.037353515625 4722.56982421875 L 3303.44189453125 4722.806640625 L 3303.70458984375 4722.41845703125 L 3310.9140625 4711.74755859375 L 3321.896240234375 4705.349609375 L 3334.86083984375 4699.24365234375 L 3347.9892578125 4699.24365234375 L 3357.068115234375 4699.24365234375 L 3357.144287109375 4699.24365234375 L 3357.216796875 4699.22119140625 L 3362.28466796875 4697.64111328125 L 3365.208251953125 4697.64111328125 L 3368.15283203125 4699.17333984375 L 3374.07958984375 4703.2080078125 L 3374.097900390625 4703.22021484375 L 3374.1171875 4703.23095703125 L 3377.898193359375 4705.34326171875 L 3377.916015625 4705.353515625 L 3377.9345703125 4705.36181640625 L 3402.6103515625 4716.61376953125 L 3406.229736328125 4725.49072265625 L 3406.255615234375 4725.55419921875 L 3406.2978515625 4725.6083984375 L 3413.34326171875 4734.689453125 L 3413.447021484375 4734.8232421875 L 3413.611083984375 4734.8662109375 L 3420.07275390625 4736.56494140625 L 3420.199462890625 4736.59814453125 L 3420.325927734375 4736.56494140625 L 3426.722412109375 4734.8984375 L 3433.654296875 4736.5673828125 L 3433.78125 4736.59765625 L 3433.90673828125 4736.5625 L 3439.95703125 4734.8642578125 L 3440.001220703125 4734.85205078125 L 3440.042236328125 4734.83154296875 L 3446.674072265625 4731.5771484375 L 3446.7783203125 4731.5263671875 L 3446.849609375 4731.43408203125 L 3450.17333984375 4727.13330078125 L 3455.90283203125 4725.78857421875 L 3455.98974609375 4725.76806640625 L 3456.064208984375 4725.71923828125 L 3463.465087890625 4720.82958984375 L 3468.263671875 4720.82958984375 L 3468.462646484375 4720.82958984375 L 3468.607177734375 4720.69287109375 L 3470.961669921875 4718.4677734375 L 3476.13525390625 4718.4677734375 L 3476.3251953125 4718.4677734375 L 3476.467041015625 4718.341796875 L 3481.021484375 4714.298828125 L 3490.4873046875 4711.85693359375 L 3490.52978515625 4711.84619140625 L 3490.56982421875 4711.828125 L 3498.9384765625 4708.015625 L 3506.0341796875 4705.40673828125 L 3512.196533203125 4705.40673828125 L 3515.28466796875 4705.40673828125 L 3521.989990234375 4708.0185546875 L 3522.017333984375 4708.029296875 L 3522.045654296875 4708.03662109375 L 3526.90283203125 4709.29736328125 L 3526.96484375 4709.3134765625 L 3527.028564453125 4709.3134765625 L 3531.7724609375 4709.3134765625 L 3534.84716796875 4711.76416015625 L 3534.984130859375 4711.873046875 L 3535.15869140625 4711.873046875 L 3539.48974609375 4711.873046875 L 3543.10107421875 4714.26220703125 L 3543.1376953125 4714.2861328125 L 3543.17724609375 4714.3037109375 L 3545.78564453125 4715.4404296875 L 3546.049072265625 4715.5556640625 L 3546.28076171875 4715.3857421875 L 3549.8095703125 4712.80224609375 L 3553.56591796875 4711.26513671875 L 3562.08740234375 4709.30078125 L 3562.28173828125 4709.255859375 L 3562.391845703125 4709.08984375 L 3564.89990234375 4705.3046875 L 3569.532470703125 4703.25146484375 L 3569.598388671875 4703.22216796875 L 3569.653564453125 4703.17529296875 L 3574.421142578125 4699.12451171875 L 3574.425048828125 4699.12158203125 L 3574.4287109375 4699.1181640625 L 3578.202392578125 4695.7783203125 L 3583.46630859375 4695.7783203125 L 3583.7373046875 4695.7783203125 L 3583.88525390625 4695.55126953125 L 3586.4736328125 4691.5791015625 L 3596.393798828125 4693.82470703125 L 3596.622802734375 4693.87646484375 L 3596.80908203125 4693.7333984375 L 3599.694091796875 4691.5146484375 L 3606.03369140625 4691.5146484375 L 3614.947509765625 4693.7841796875 L 3619.739013671875 4699.0791015625 L 3619.887939453125 4699.24365234375 L 3620.109619140625 4699.24365234375 L 3626.920166015625 4699.24365234375 L 3633.748779296875 4701.51416015625 L 3633.752197265625 4701.51513671875 L 3633.755126953125 4701.51611328125 L 3639.27880859375 4703.27099609375 L 3639.271240234375 4703.2685546875 L 3645.53173828125 4705.3681640625 L 3652.845703125 4709.23095703125 L 3658.841552734375 4714.22900390625 L 3658.98095703125 4714.34521484375 L 3659.161865234375 4714.34521484375 L 3662.617919921875 4714.34521484375 L 3663.201171875 4716.81982421875 L 3663.262451171875 4717.0791015625 L 3663.511962890625 4717.17333984375 L 3666.104736328125 4718.1484375 L 3668.12890625 4721.001953125 L 3668.193115234375 4721.0927734375 L 3668.28955078125 4721.1474609375 L 3670.700439453125 4722.5205078125 L 3672.068603515625 4724.2119140625 L 3672.149169921875 4724.3115234375 L 3672.267822265625 4724.3603515625 L 3674.947021484375 4725.45751953125 L 3675.982666015625 4728.3203125 L 3676.068603515625 4728.55810546875 L 3676.311279296875 4728.6298828125 L 3686.38623046875 4731.60791015625 L 3686.642578125 4731.68359375 L 3686.847900390625 4731.5126953125 L 3695.526123046875 4724.28173828125 L 3702.534423828125 4718.4267578125 L 3709.708251953125 4716.7275390625 L 3709.846923828125 4716.69482421875 L 3709.947509765625 4716.59375 L 3715.2275390625 4711.287109375 L 3723.582763671875 4711.287109375 L 3734.11767578125 4716.68310546875 L 3748.1083984375 4724.3359375 L 3748.259033203125 4724.4189453125 L 3748.4287109375 4724.39111328125 L 3759.24560546875 4722.6279296875 L 3772.518798828125 4721.23046875 L 3782.478759765625 4728.55322265625 L 3782.68408203125 4728.7041015625 L 3782.927001953125 4728.626953125 L 3791.859130859375 4725.7783203125 L 3791.907470703125 4725.7626953125 L 3791.951416015625 4725.73828125 L 3797.459716796875 4722.65380859375 L 3808.227783203125 4724.3720703125 L 3813.91357421875 4728.55322265625 L 3813.9833984375 4728.6044921875 L 3814.06640625 4728.62939453125 L 3824.023681640625 4731.607421875 L 3824.153564453125 4731.646484375 L 3824.28515625 4731.6142578125 L 3836.5263671875 4728.63623046875 L 3836.6171875 4728.6142578125 L 3836.693603515625 4728.56103515625 L 3842.657470703125 4724.41796875 L 3853.522216796875 4725.7978515625 L 3853.686279296875 4725.81884765625 L 3853.830322265625 4725.73779296875 L 3859.276123046875 4722.6767578125 L 3864.431884765625 4724.37255859375 L 3864.667236328125 4724.44970703125 L 3864.871337890625 4724.3095703125 L 3873.238525390625 4718.552734375 L 3880.714111328125 4722.5732421875 L 3880.8603515625 4722.65185546875 L 3881.02490234375 4722.62744140625 L 3890.42919921875 4721.2177734375 L 3900.58740234375 4722.6279296875 L 3900.641845703125 4722.6357421875 L 3900.696533203125 4722.63134765625 L 3918.17041015625 4721.21533203125 L 3929.874267578125 4722.62939453125 L 3930.005615234375 4722.64501953125 L 3930.1279296875 4722.59375 L 3939.84423828125 4718.51171875 L 3949.0546875 4722.56103515625 L 3956.112548828125 4728.5322265625 L 3956.314697265625 4728.703125 L 3956.56982421875 4728.63232421875 L 3967.5859375 4725.560546875 L 3967.59228515625 4725.55859375 L 3967.598876953125 4725.556640625 L 3977.1640625 4722.61083984375 L 3977.19873046875 4722.60009765625 L 3977.231689453125 4722.58447265625 L 3985.885986328125 4718.4677734375 L 3993.80029296875 4718.4677734375 L 4001.405029296875 4721.14990234375 L 4006.05810546875 4725.4462890625 L 4006.43115234375 4725.791015625 L 4006.77001953125 4725.412109375 L 4014.619384765625 4716.64111328125 L 4024.802490234375 4711.228515625 L 4024.82666015625 4711.2158203125 L 4024.84912109375 4711.2001953125 L 4033.416748046875 4705.37109375 L 4041.966064453125 4703.2802734375 L 4042.11181640625 4703.24462890625 L 4042.214111328125 4703.13427734375 L 4047.75390625 4697.15869140625 L 4055.793701171875 4697.15869140625 L 4065.119384765625 4697.15869140625 L 4072.05908203125 4701.46435546875 L 4072.1123046875 4701.49755859375 L 4072.172119140625 4701.51611328125 L 4084.37158203125 4705.369140625 L 4095.259033203125 4711.2275390625 L 4095.27587890625 4711.23681640625 L 4095.293701171875 4711.24462890625 L 4107.611328125 4716.69287109375 L 4116.134765625 4721.15576171875 L 4116.24365234375 4721.212890625 L 4116.36669921875 4721.212890625 L 4120.8876953125 4721.212890625 L 4121.00634765625 4721.212890625 L 4121.1123046875 4721.15966796875 L 4130.0048828125 4716.68798828125 L 4130.08544921875 4716.6474609375 L 4130.14697265625 4716.5810546875 L 4135.1767578125 4711.15673828125 L 4142.59130859375 4705.36474609375 L 4150.630859375 4703.2783203125 L 4150.6787109375 4703.26611328125 L 4150.72314453125 4703.24462890625 L 4159.0087890625 4699.2392578125 L 4167.21728515625 4699.2392578125 L 4175.8212890625 4701.52294921875 L 4175.8369140625 4701.52685546875 L 4175.8525390625 4701.52978515625 L 4184.58740234375 4703.2646484375 L 4191.5126953125 4708.06103515625 L 4201.3798828125 4716.61865234375 L 4201.49169921875 4716.7158203125 L 4201.6376953125 4716.736328125 L 4213.81494140625 4718.4501953125 L 4224.34375 4724.333984375 L 4224.3974609375 4724.3642578125 L 4224.45703125 4724.38037109375 L 4240.21875 4728.6328125 L 4240.2236328125 4728.63427734375 L 4240.22900390625 4728.6357421875 L 4252.5595703125 4731.6845703125 L 4252.564453125 4731.68603515625 L 4252.5693359375 4731.68701171875 L 4264.22802734375 4734.3251953125 L 4264.2822265625 4734.337890625 L 4264.33837890625 4734.337890625 L 4273.6513671875 4734.337890625 L 4273.833984375 4734.337890625 L 4273.97314453125 4734.22021484375 L 4280.66064453125 4728.5927734375 L 4289.4970703125 4725.5517578125 L 4289.541015625 4725.53662109375 L 4289.5810546875 4725.51416015625 L 4297.25732421875 4721.1611328125 L 4307.513671875 4716.69970703125 L 4307.52685546875 4716.69384765625 L 4307.53955078125 4716.6875 L 4318.31201171875 4711.2431640625 L 4325.92919921875 4708.16552734375 L 4334.05419921875 4708.16552734375 L 4334.31396484375 4708.16552734375 L 4334.46337890625 4707.95263671875 L 4339.048828125 4701.42431640625 L 4343.21435546875 4699.189453125 L 4347.9697265625 4697.15869140625 L 4352.95556640625 4697.15869140625 L 4356.40625 4701.35693359375 L 4356.5126953125 4701.486328125 L 4356.67578125 4701.52587890625 L 4363.865234375 4703.25439453125 L 4369.7734375 4708.0537109375 L 4369.78955078125 4708.06640625 L 4369.806640625 4708.078125 L 4379.42919921875 4714.66162109375 L 4383.744140625 4718.287109375 L 4389.02783203125 4728.38232421875 L 4389.3251953125 4728.94970703125 L 4389.80322265625 4728.52392578125 L 4394.5859375 4724.27099609375 L 4394.57666015625 4724.27978515625 L 4397.95751953125 4721.42529296875 L 4401.15087890625 4725.392578125 L 4401.19677734375 4725.44970703125 L 4401.25732421875 4725.4912109375 L 4410.1650390625 4731.611328125 L 4410.20556640625 4731.63916015625 L 4410.2509765625 4731.65869140625 L 4416.38916015625 4734.296875 L 4416.4833984375 4734.337890625 L 4416.58642578125 4734.337890625 L 4422.56005859375 4734.337890625 L 4426.763671875 4741.41943359375 L 4426.802734375 4741.48486328125 L 4426.859375 4741.53564453125 L 4433.27392578125 4747.3115234375 L 4433.49853515625 4747.513671875 L 4433.78173828125 4747.4091796875 L 4442.8603515625 4744.0556640625 L 4450.46826171875 4741.70263671875 L 4461.20703125 4747.3818359375 L 4461.19970703125 4747.3779296875 L 4471.2822265625 4752.92724609375 L 4478.1708984375 4758.35302734375 L 4478.306640625 4758.4599609375 L 4478.47998046875 4758.4599609375 L 4491.01416015625 4758.4599609375 L 4501.65869140625 4758.4599609375 L 4512.18603515625 4760.3701171875 L 4512.35400390625 4760.400390625 L 4512.5048828125 4760.322265625 L 4522.2578125 4755.28515625 L 4533.18212890625 4753.01708984375 L 4546.82861328125 4755.29150390625 L 4557.62939453125 4760.28955078125 L 4568.1630859375 4771.80859375 L 4568.23291015625 4771.88427734375 L 4568.32666015625 4771.9267578125 L 4579.78173828125 4777.09765625 L 4579.806640625 4777.10888671875 L 4579.83251953125 4777.1171875 L 4590.6787109375 4780.65576171875 L 4590.75390625 4780.6806640625 L 4590.83349609375 4780.6806640625 L 4602.07373046875 4780.6806640625 L 4615.4765625 4780.6806640625 L 4615.56201171875 4780.6806640625 L 4615.64306640625 4780.65234375 L 4625.515625 4777.1748046875 L 4634.5126953125 4780.64697265625 L 4634.6943359375 4780.71728515625 L 4634.875 4780.64599609375 L 4643.81591796875 4777.14208984375 L 4654.943359375 4777.14208984375 L 4668.4638671875 4777.14208984375 L 4668.6337890625 4777.14208984375 L 4668.76806640625 4777.03857421875 L 4675.509765625 4771.86767578125 L 4675.50439453125 4771.8720703125 L 4684.9814453125 4764.80908203125 L 4685.005859375 4764.791015625 L 4685.02783203125 4764.77001953125 L 4695.02978515625 4755.2333984375 L 4713.19921875 4747.40673828125 L 4722.98388671875 4744.1083984375 L 4733.49560546875 4747.4169921875 L 4733.6611328125 4747.46923828125 L 4733.8232421875 4747.4072265625 L 4742.330078125 4744.17138671875 L 4747.08935546875 4749.416015625 L 4747.23828125 4749.580078125 L 4747.45947265625 4749.580078125 L 4755.59033203125 4749.580078125 L 4765.2119140625 4755.240234375 L 4765.23388671875 4755.25341796875 L 4765.25732421875 4755.26416015625 L 4776.3369140625 4760.3330078125 L 4776.43603515625 4760.3779296875 L 4776.544921875 4760.3779296875 L 4791.23828125 4760.3779296875 L 4791.3125 4760.3779296875 L 4791.38330078125 4760.3564453125 L 4808.05224609375 4755.3095703125 L 4822.7646484375 4755.3095703125 L 4833.6455078125 4755.3095703125 L 4841.9677734375 4758.42822265625 L 4842.0185546875 4758.447265625 L 4842.0732421875 4758.455078125 L 4855.630859375 4760.373046875 L 4872.25439453125 4762.80029296875 L 4872.33349609375 4762.81201171875 L 4872.412109375 4762.79833984375 L 4886.38037109375 4760.37158203125 L 4899.1806640625 4758.4599609375 L 4913.91162109375 4758.4599609375 L 4913.99267578125 4758.4599609375 L 4914.0693359375 4758.4345703125 L 4930.43359375 4752.994140625 L 4949.21240234375 4749.572265625 L 4949.29345703125 4749.55712890625 L 4949.36572265625 4749.51708984375 L 4959.212890625 4744.03466796875 L 4970.5888671875 4739.44873046875 L 4979.3310546875 4736.58935546875 L 4982.7900390625 4743.798828125 L 4982.92578125 4744.08251953125 L 4983.24072265625 4744.08251953125 L 4995.19482421875 4744.08251953125 L 5002.37451171875 4747.39404296875 L 5002.47412109375 4747.43994140625 L 5002.583984375 4747.43994140625 L 5015.46923828125 4747.43994140625 L 5015.56396484375 4747.43994140625 L 5015.65234375 4747.4052734375 L 5024.0986328125 4744.08251953125 L 5032.798828125 4744.08251953125 L 5037.015625 4747.3359375 L 5037.052734375 4747.3642578125 L 5037.09423828125 4747.3857421875 L 5048.046875 4752.95458984375 L 5048.24951171875 4753.0576171875 L 5048.4609375 4752.97216796875 L 5062.15234375 4747.43994140625 L 5071.5751953125 4747.43994140625 L 5074.4404296875 4747.43994140625 L 5074.4404296875 5096.71142578125 Z"/><path class="d" d="M 5073.9404296875 5096.21142578125 L 5073.9404296875 4747.93994140625 L 5071.5751953125 4747.93994140625 L 5062.24951171875 4747.93994140625 L 5048.6484375 4753.43603515625 C 5048.52783203125 4753.484375 5048.400390625 4753.5087890625 5048.2734375 4753.5087890625 C 5048.11767578125 4753.5087890625 5047.96240234375 4753.47216796875 5047.8203125 4753.400390625 L 5036.86767578125 4747.83154296875 C 5036.81201171875 4747.80322265625 5036.75927734375 4747.76953125 5036.7099609375 4747.7314453125 L 5032.62841796875 4744.58251953125 L 5024.193359375 4744.58251953125 L 5015.83544921875 4747.87060546875 C 5015.71875 4747.91650390625 5015.5947265625 4747.93994140625 5015.46923828125 4747.93994140625 L 5002.583984375 4747.93994140625 C 5002.439453125 4747.93994140625 5002.29638671875 4747.90869140625 5002.1650390625 4747.84814453125 L 4995.0849609375 4744.58251953125 L 4983.24072265625 4744.58251953125 C 4982.85595703125 4744.58251953125 4982.50537109375 4744.36181640625 4982.3388671875 4744.01513671875 L 4979.0693359375 4737.201171875 L 4970.7578125 4739.919921875 L 4959.4306640625 4744.48583984375 L 4949.60888671875 4749.9541015625 C 4949.51318359375 4750.00732421875 4949.40966796875 4750.04443359375 4949.3017578125 4750.06396484375 L 4930.55859375 4753.47998046875 L 4914.22705078125 4758.9091796875 C 4914.12548828125 4758.94287109375 4914.0185546875 4758.9599609375 4913.91162109375 4758.9599609375 L 4899.2177734375 4758.9599609375 L 4886.4609375 4760.865234375 L 4872.498046875 4763.291015625 C 4872.44140625 4763.30078125 4872.3837890625 4763.3056640625 4872.32666015625 4763.3056640625 C 4872.2783203125 4763.3056640625 4872.22998046875 4763.30224609375 4872.18212890625 4763.29541015625 L 4855.560546875 4760.8681640625 L 4842.0029296875 4758.9501953125 C 4841.93115234375 4758.93994140625 4841.8603515625 4758.921875 4841.7919921875 4758.896484375 L 4833.5546875 4755.8095703125 L 4822.7646484375 4755.8095703125 L 4808.12646484375 4755.8095703125 L 4791.52783203125 4760.8349609375 C 4791.43408203125 4760.86328125 4791.33642578125 4760.8779296875 4791.23828125 4760.8779296875 L 4776.544921875 4760.8779296875 C 4776.4013671875 4760.8779296875 4776.25927734375 4760.84716796875 4776.12890625 4760.787109375 L 4765.04931640625 4755.71875 C 4765.01806640625 4755.70458984375 4764.98779296875 4755.68896484375 4764.95849609375 4755.67138671875 L 4755.4541015625 4750.080078125 L 4747.45947265625 4750.080078125 C 4747.17724609375 4750.080078125 4746.90869140625 4749.9609375 4746.71923828125 4749.751953125 L 4742.189453125 4744.759765625 L 4734.0009765625 4747.87451171875 C 4733.88671875 4747.91796875 4733.76611328125 4747.93994140625 4733.6455078125 4747.93994140625 C 4733.54443359375 4747.93994140625 4733.44287109375 4747.9248046875 4733.34521484375 4747.8935546875 L 4722.9892578125 4744.63427734375 L 4713.376953125 4747.875 L 4695.310546875 4755.65673828125 L 4685.37255859375 4765.13232421875 C 4685.34375 4765.16015625 4685.3125 4765.18603515625 4685.2802734375 4765.2099609375 L 4675.80615234375 4772.2705078125 L 4669.072265625 4777.435546875 C 4668.89794921875 4777.5693359375 4668.68359375 4777.64208984375 4668.4638671875 4777.64208984375 L 4654.943359375 4777.64208984375 L 4643.91064453125 4777.64208984375 L 4635.0576171875 4781.11181640625 C 4634.9404296875 4781.15771484375 4634.81640625 4781.1806640625 4634.69287109375 4781.1806640625 C 4634.57080078125 4781.1806640625 4634.44873046875 4781.158203125 4634.3330078125 4781.11328125 L 4625.5078125 4777.70751953125 L 4615.80859375 4781.12353515625 C 4615.7021484375 4781.1611328125 4615.58984375 4781.1806640625 4615.4765625 4781.1806640625 L 4602.07373046875 4781.1806640625 L 4590.83349609375 4781.1806640625 C 4590.728515625 4781.1806640625 4590.62353515625 4781.1640625 4590.5234375 4781.13134765625 L 4579.67724609375 4777.5927734375 C 4579.64306640625 4777.58154296875 4579.60888671875 4777.568359375 4579.576171875 4777.5537109375 L 4568.12109375 4772.38232421875 C 4567.9970703125 4772.32666015625 4567.8857421875 4772.24609375 4567.79443359375 4772.14599609375 L 4557.32861328125 4760.70166015625 L 4546.68017578125 4755.7734375 L 4533.19189453125 4753.52587890625 L 4522.42626953125 4755.7607421875 L 4512.734375 4760.7666015625 C 4512.591796875 4760.84033203125 4512.43408203125 4760.8779296875 4512.27490234375 4760.8779296875 C 4512.2158203125 4760.8779296875 4512.15576171875 4760.87255859375 4512.0966796875 4760.8623046875 L 4501.61279296875 4758.9599609375 L 4491.01416015625 4758.9599609375 L 4478.47998046875 4758.9599609375 C 4478.25537109375 4758.9599609375 4478.03759765625 4758.88427734375 4477.861328125 4758.74560546875 L 4471.00537109375 4753.345703125 L 4460.9609375 4747.8173828125 L 4450.41796875 4742.2421875 L 4443.0166015625 4744.53076171875 L 4433.95458984375 4747.8779296875 C 4433.841796875 4747.91943359375 4433.72509765625 4747.93994140625 4433.6083984375 4747.93994140625 C 4433.365234375 4747.93994140625 4433.1259765625 4747.85107421875 4432.939453125 4747.68310546875 L 4426.52490234375 4741.9072265625 C 4426.44970703125 4741.83984375 4426.38525390625 4741.76123046875 4426.333984375 4741.67431640625 L 4422.275390625 4734.837890625 L 4416.58642578125 4734.837890625 C 4416.45068359375 4734.837890625 4416.31640625 4734.81005859375 4416.19140625 4734.7568359375 L 4410.05322265625 4732.1181640625 C 4409.9931640625 4732.09228515625 4409.93603515625 4732.060546875 4409.88232421875 4732.0234375 L 4400.97412109375 4725.9033203125 C 4400.89404296875 4725.84814453125 4400.822265625 4725.78173828125 4400.76123046875 4725.7060546875 L 4397.888671875 4722.13720703125 L 4394.91015625 4724.65234375 L 4390.1357421875 4728.89794921875 C 4389.951171875 4729.06201171875 4389.71435546875 4729.150390625 4389.47119140625 4729.150390625 C 4389.41162109375 4729.150390625 4389.35107421875 4729.14501953125 4389.291015625 4729.1337890625 C 4388.98828125 4729.07861328125 4388.72802734375 4728.88671875 4388.58544921875 4728.6142578125 L 4383.34716796875 4718.6064453125 L 4379.1259765625 4715.06005859375 L 4369.52392578125 4708.49072265625 C 4369.50146484375 4708.47509765625 4369.4794921875 4708.458984375 4369.45849609375 4708.44140625 L 4363.63818359375 4703.7138671875 L 4356.55859375 4702.01171875 C 4356.34716796875 4701.9609375 4356.158203125 4701.8427734375 4356.02001953125 4701.67431640625 L 4352.71923828125 4697.65869140625 L 4348.072265625 4697.65869140625 L 4343.42919921875 4699.6416015625 L 4339.39013671875 4701.80859375 L 4334.87255859375 4708.240234375 C 4334.685546875 4708.5068359375 4334.3798828125 4708.66552734375 4334.05419921875 4708.66552734375 L 4326.0263671875 4708.66552734375 L 4318.521484375 4711.69775390625 L 4307.76513671875 4717.1337890625 C 4307.748046875 4717.14208984375 4307.73046875 4717.150390625 4307.712890625 4717.158203125 L 4297.4814453125 4721.6083984375 L 4289.82763671875 4725.94873046875 C 4289.7744140625 4725.97900390625 4289.71826171875 4726.00439453125 4289.66015625 4726.0244140625 L 4280.91162109375 4729.03515625 L 4274.29541015625 4734.60302734375 C 4274.11474609375 4734.7548828125 4273.88671875 4734.837890625 4273.6513671875 4734.837890625 L 4264.33837890625 4734.837890625 C 4264.26416015625 4734.837890625 4264.18994140625 4734.82958984375 4264.11767578125 4734.81298828125 L 4252.458984375 4732.17431640625 C 4252.45263671875 4732.1728515625 4252.4462890625 4732.17138671875 4252.43994140625 4732.169921875 L 4240.10888671875 4729.12109375 C 4240.10205078125 4729.11962890625 4240.09521484375 4729.11767578125 4240.08837890625 4729.11572265625 L 4224.32666015625 4724.86328125 C 4224.24755859375 4724.841796875 4224.17138671875 4724.810546875 4224.099609375 4724.7705078125 L 4213.65234375 4718.93212890625 L 4201.568359375 4717.2314453125 C 4201.37744140625 4717.20458984375 4201.1982421875 4717.123046875 4201.05224609375 4716.99658203125 L 4191.205078125 4708.45654296875 L 4184.38818359375 4703.73486328125 L 4175.7548828125 4702.0205078125 C 4175.734375 4702.01611328125 4175.71337890625 4702.01123046875 4175.693359375 4702.005859375 L 4167.15283203125 4699.7392578125 L 4159.123046875 4699.7392578125 L 4150.94091796875 4703.69482421875 C 4150.8818359375 4703.72314453125 4150.81982421875 4703.74609375 4150.7568359375 4703.76220703125 L 4142.8173828125 4705.82275390625 L 4135.5166015625 4711.525390625 L 4130.513671875 4716.9208984375 C 4130.43212890625 4717.00830078125 4130.3359375 4717.0810546875 4130.2294921875 4717.13427734375 L 4121.3369140625 4721.60595703125 C 4121.197265625 4721.67626953125 4121.04345703125 4721.712890625 4120.8876953125 4721.712890625 L 4116.36669921875 4721.712890625 C 4116.205078125 4721.712890625 4116.0458984375 4721.673828125 4115.90283203125 4721.5986328125 L 4107.3916015625 4717.14208984375 L 4095.09130859375 4711.70166015625 C 4095.06787109375 4711.69091796875 4095.044677734375 4711.68017578125 4095.022216796875 4711.66796875 L 4084.176025390625 4705.83203125 L 4072.021484375 4701.9931640625 C 4071.942138671875 4701.96826171875 4071.8662109375 4701.93310546875 4071.79541015625 4701.88916015625 L 4064.9765625 4697.65869140625 L 4055.793701171875 4697.65869140625 L 4047.97216796875 4697.65869140625 L 4042.580810546875 4703.47412109375 C 4042.447509765625 4703.6181640625 4042.275146484375 4703.71923828125 4042.0849609375 4703.76611328125 L 4033.623291015625 4705.83544921875 L 4025.13037109375 4711.61376953125 C 4025.100341796875 4711.63427734375 4025.0693359375 4711.65283203125 4025.037109375 4711.67041015625 L 4014.932861328125 4717.04052734375 L 4007.142578125 4725.74609375 C 4006.9638671875 4725.9453125 4006.712646484375 4726.0654296875 4006.445068359375 4726.07763671875 C 4006.428955078125 4726.07861328125 4006.4130859375 4726.0791015625 4006.39697265625 4726.0791015625 C 4006.146240234375 4726.0791015625 4005.90380859375 4725.984375 4005.718994140625 4725.81396484375 L 4001.14208984375 4721.58740234375 L 3993.714111328125 4718.9677734375 L 3985.9990234375 4718.9677734375 L 3977.4462890625 4723.0361328125 C 3977.402587890625 4723.056640625 3977.357666015625 4723.07421875 3977.311279296875 4723.08837890625 L 3967.745849609375 4726.03466796875 C 3967.7373046875 4726.037109375 3967.728759765625 4726.0400390625 3967.72021484375 4726.04248046875 L 3956.7041015625 4729.11376953125 C 3956.615478515625 4729.13818359375 3956.525390625 4729.150390625 3956.435791015625 4729.150390625 C 3956.2021484375 4729.150390625 3955.972412109375 4729.068359375 3955.78955078125 4728.91357421875 L 3948.787353515625 4722.98974609375 L 3939.839599609375 4719.05615234375 L 3930.321533203125 4723.0546875 C 3930.198486328125 4723.1064453125 3930.066650390625 4723.1328125 3929.93408203125 4723.1328125 C 3929.89404296875 4723.1328125 3929.854248046875 4723.13037109375 3929.814208984375 4723.12548828125 L 3918.16015625 4721.7177734375 L 3900.73681640625 4723.12939453125 C 3900.7099609375 4723.1318359375 3900.68310546875 4723.1328125 3900.65625 4723.1328125 C 3900.610107421875 4723.1328125 3900.564208984375 4723.12939453125 3900.518798828125 4723.123046875 L 3890.432373046875 4721.72314453125 L 3881.09912109375 4723.1220703125 C 3881.0498046875 4723.12939453125 3881.000244140625 4723.1328125 3880.950927734375 4723.1328125 C 3880.786376953125 4723.1328125 3880.62353515625 4723.09228515625 3880.477294921875 4723.013671875 L 3873.270751953125 4719.1376953125 L 3865.155029296875 4724.72119140625 C 3864.986083984375 4724.83740234375 3864.7880859375 4724.8974609375 3864.588134765625 4724.8974609375 C 3864.483154296875 4724.8974609375 3864.377685546875 4724.88134765625 3864.275634765625 4724.84765625 L 3859.328857421875 4723.22021484375 L 3854.0751953125 4726.17333984375 C 3853.9248046875 4726.25830078125 3853.755859375 4726.3017578125 3853.5849609375 4726.3017578125 C 3853.54296875 4726.3017578125 3853.5009765625 4726.29931640625 3853.459228515625 4726.2939453125 L 3842.784423828125 4724.93798828125 L 3836.978759765625 4728.9716796875 C 3836.877685546875 4729.0419921875 3836.764404296875 4729.09326171875 3836.644775390625 4729.1220703125 L 3824.403564453125 4732.10009765625 C 3824.325927734375 4732.119140625 3824.24658203125 4732.12841796875 3824.167236328125 4732.12841796875 C 3824.070556640625 4732.12841796875 3823.97412109375 4732.1142578125 3823.880615234375 4732.08642578125 L 3813.92333984375 4729.1083984375 C 3813.813232421875 4729.07568359375 3813.709716796875 4729.02392578125 3813.617431640625 4728.9560546875 L 3808.029296875 4724.84716796875 L 3797.552490234375 4723.17529296875 L 3792.19580078125 4726.17431640625 C 3792.136962890625 4726.20751953125 3792.074951171875 4726.234375 3792.010986328125 4726.25439453125 L 3783.078857421875 4729.10302734375 C 3782.979248046875 4729.134765625 3782.876953125 4729.150390625 3782.77490234375 4729.150390625 C 3782.564453125 4729.150390625 3782.3564453125 4729.083984375 3782.1826171875 4728.9560546875 L 3772.378662109375 4721.748046875 L 3759.30712890625 4723.12451171875 L 3748.50927734375 4724.88427734375 C 3748.45556640625 4724.89306640625 3748.401611328125 4724.8974609375 3748.347900390625 4724.8974609375 C 3748.18115234375 4724.8974609375 3748.01611328125 4724.85595703125 3747.868408203125 4724.77490234375 L 3733.88037109375 4717.123046875 L 3723.462158203125 4711.787109375 L 3715.435302734375 4711.787109375 L 3710.302001953125 4716.9462890625 C 3710.17041015625 4717.07861328125 3710.0048828125 4717.17138671875 3709.823486328125 4717.21435546875 L 3702.764404296875 4718.88671875 L 3695.846435546875 4724.666015625 L 3687.16796875 4731.89697265625 C 3686.986083984375 4732.04833984375 3686.7587890625 4732.12841796875 3686.527587890625 4732.12841796875 C 3686.432861328125 4732.12841796875 3686.33740234375 4732.115234375 3686.244140625 4732.08740234375 L 3676.169189453125 4729.109375 C 3675.864501953125 4729.01904296875 3675.62060546875 4728.78955078125 3675.512451171875 4728.49072265625 L 3674.55224609375 4725.83642578125 L 3672.078369140625 4724.8232421875 C 3671.922607421875 4724.75927734375 3671.78564453125 4724.6572265625 3671.6796875 4724.5263671875 L 3670.371337890625 4722.90869140625 L 3668.0419921875 4721.58203125 C 3667.915283203125 4721.50927734375 3667.8056640625 4721.41064453125 3667.72119140625 4721.29150390625 L 3665.785400390625 4718.5625 L 3663.335693359375 4717.64111328125 C 3663.023681640625 4717.52392578125 3662.791015625 4717.2587890625 3662.714599609375 4716.9345703125 L 3662.22216796875 4714.84521484375 L 3659.161865234375 4714.84521484375 C 3658.927734375 4714.84521484375 3658.701416015625 4714.76318359375 3658.521728515625 4714.61328125 L 3652.566650390625 4709.6494140625 L 3645.333740234375 4705.82861328125 L 3639.125732421875 4703.7470703125 L 3633.603759765625 4701.99267578125 C 3633.599609375 4701.9912109375 3633.595458984375 4701.98974609375 3633.591064453125 4701.98828125 L 3626.839111328125 4699.74365234375 L 3620.109619140625 4699.74365234375 C 3619.8271484375 4699.74365234375 3619.557861328125 4699.6240234375 3619.368408203125 4699.41455078125 L 3614.677978515625 4694.2314453125 L 3605.97119140625 4692.0146484375 L 3599.86376953125 4692.0146484375 L 3597.11376953125 4694.12939453125 C 3596.9375 4694.26513671875 3596.722900390625 4694.3369140625 3596.50439453125 4694.3369140625 C 3596.4306640625 4694.3369140625 3596.356689453125 4694.32861328125 3596.283447265625 4694.31201171875 L 3586.70263671875 4692.1435546875 L 3584.30419921875 4695.82421875 C 3584.11962890625 4696.107421875 3583.804443359375 4696.2783203125 3583.46630859375 4696.2783203125 L 3578.391845703125 4696.2783203125 L 3574.76025390625 4699.49267578125 C 3574.7548828125 4699.4970703125 3574.75 4699.50146484375 3574.74462890625 4699.505859375 L 3569.97705078125 4703.556640625 C 3569.904296875 4703.61865234375 3569.822509765625 4703.669921875 3569.73486328125 4703.708984375 L 3565.235595703125 4705.70263671875 L 3562.80859375 4709.36572265625 C 3562.667236328125 4709.57958984375 3562.44921875 4709.73046875 3562.199462890625 4709.7880859375 L 3553.716796875 4711.74365234375 L 3550.056640625 4713.24169921875 L 3546.576171875 4715.7890625 C 3546.40185546875 4715.9169921875 3546.194580078125 4715.982421875 3545.9853515625 4715.982421875 C 3545.85009765625 4715.982421875 3545.714111328125 4715.955078125 3545.5859375 4715.89892578125 L 3542.9775390625 4714.76171875 C 3542.924560546875 4714.73876953125 3542.87353515625 4714.7109375 3542.825439453125 4714.67919921875 L 3539.339111328125 4712.373046875 L 3535.15869140625 4712.373046875 C 3534.932373046875 4712.373046875 3534.712646484375 4712.2958984375 3534.535400390625 4712.15478515625 L 3531.59765625 4709.8134765625 L 3527.028564453125 4709.8134765625 C 3526.94384765625 4709.8134765625 3526.859375 4709.802734375 3526.77734375 4709.78125 L 3521.920166015625 4708.5205078125 C 3521.88232421875 4708.5107421875 3521.844970703125 4708.49853515625 3521.80859375 4708.48486328125 L 3515.190673828125 4705.90673828125 L 3512.196533203125 4705.90673828125 L 3506.123046875 4705.90673828125 L 3499.128662109375 4708.478515625 L 3490.77685546875 4712.283203125 C 3490.723876953125 4712.30712890625 3490.668701171875 4712.32666015625 3490.612060546875 4712.34130859375 L 3481.2626953125 4714.75341796875 L 3476.799072265625 4718.7158203125 C 3476.6162109375 4718.8779296875 3476.3798828125 4718.9677734375 3476.13525390625 4718.9677734375 L 3471.16064453125 4718.9677734375 L 3468.95068359375 4721.05615234375 C 3468.764892578125 4721.23193359375 3468.519287109375 4721.32958984375 3468.263671875 4721.32958984375 L 3463.614990234375 4721.32958984375 L 3456.33984375 4726.13623046875 C 3456.2412109375 4726.201171875 3456.1318359375 4726.24853515625 3456.01708984375 4726.275390625 L 3450.460205078125 4727.57958984375 L 3447.244873046875 4731.73974609375 C 3447.151611328125 4731.86083984375 3447.03173828125 4731.958984375 3446.894287109375 4732.0263671875 L 3440.262451171875 4735.28076171875 C 3440.207763671875 4735.30712890625 3440.150634765625 4735.3291015625 3440.092041015625 4735.345703125 L 3434.041748046875 4737.0439453125 C 3433.953369140625 4737.06884765625 3433.86279296875 4737.0810546875 3433.77197265625 4737.0810546875 C 3433.693115234375 4737.0810546875 3433.614501953125 4737.07177734375 3433.537353515625 4737.05322265625 L 3426.727783203125 4735.41357421875 L 3420.4521484375 4737.048828125 C 3420.369384765625 4737.0703125 3420.28466796875 4737.0810546875 3420.199951171875 4737.0810546875 C 3420.114501953125 4737.0810546875 3420.029052734375 4737.0703125 3419.94580078125 4737.04833984375 L 3413.484130859375 4735.35009765625 C 3413.271484375 4735.2939453125 3413.0830078125 4735.16943359375 3412.9482421875 4734.99609375 L 3405.90283203125 4725.9150390625 C 3405.846923828125 4725.8427734375 3405.80126953125 4725.763671875 3405.766845703125 4725.6796875 L 3402.222412109375 4716.986328125 L 3377.726806640625 4705.81640625 C 3377.7021484375 4705.8056640625 3377.677734375 4705.79296875 3377.654296875 4705.77978515625 L 3373.873291015625 4703.66748046875 C 3373.84765625 4703.65283203125 3373.822509765625 4703.6376953125 3373.79833984375 4703.62109375 L 3367.897216796875 4699.60400390625 L 3365.085693359375 4698.14111328125 L 3362.36083984375 4698.14111328125 L 3357.36572265625 4699.69873046875 C 3357.269287109375 4699.728515625 3357.1689453125 4699.74365234375 3357.068115234375 4699.74365234375 L 3347.9892578125 4699.74365234375 L 3334.97265625 4699.74365234375 L 3322.127197265625 4705.7939453125 L 3311.264404296875 4712.1220703125 L 3304.118896484375 4722.6982421875 C 3303.926513671875 4722.98291015625 3303.611572265625 4723.13818359375 3303.28955078125 4723.13818359375 C 3303.1171875 4723.13818359375 3302.943115234375 4723.09375 3302.784423828125 4723.0009765625 L 3292.816650390625 4717.1572265625 L 3278.3984375 4712.373046875 L 3264.716552734375 4712.373046875 C 3264.542724609375 4712.373046875 3264.371826171875 4712.32763671875 3264.220947265625 4712.24169921875 L 3249.42333984375 4703.79443359375 L 3240.767578125 4703.79443359375 L 3240.767578125 4711.373046875 C 3240.767578125 4711.63427734375 3240.66552734375 4711.88525390625 3240.48291015625 4712.07177734375 L 3229.963134765625 4722.8369140625 C 3229.77490234375 4723.02978515625 3229.51708984375 4723.13818359375 3229.247802734375 4723.13818359375 L 3213.648193359375 4723.13818359375 C 3213.463623046875 4723.13818359375 3213.28271484375 4723.08740234375 3213.12548828125 4722.99072265625 L 3195.564208984375 4712.2255859375 C 3195.5166015625 4712.1962890625 3195.471435546875 4712.1630859375 3195.42919921875 4712.12646484375 L 3185.772705078125 4703.6962890625 L 3172.074951171875 4699.8525390625 L 3167.8427734375 4703.5478515625 C 3167.657958984375 4703.708984375 3167.42333984375 4703.79443359375 3167.184814453125 4703.79443359375 C 3167.079345703125 4703.79443359375 3166.972900390625 4703.77783203125 3166.86962890625 4703.74365234375 L 3156 4700.1298828125 L 3156 5096.21142578125 L 5073.9404296875 5096.21142578125 M 5074.9404296875 5097.21142578125 L 3155 5097.21142578125 L 3155 4698.74365234375 L 3167.185302734375 4702.79443359375 L 3171.824462890625 4698.74365234375 L 3186.26025390625 4702.79443359375 L 3196.0869140625 4711.373046875 L 3213.648193359375 4722.13818359375 L 3229.247802734375 4722.13818359375 L 3239.767578125 4711.373046875 L 3239.767578125 4702.79443359375 L 3249.688720703125 4702.79443359375 L 3264.716552734375 4711.373046875 L 3278.56005859375 4711.373046875 L 3293.2314453125 4716.2412109375 L 3303.290283203125 4722.13818359375 L 3310.563720703125 4711.373046875 L 3321.6630859375 4704.90673828125 L 3334.748779296875 4698.74365234375 L 3347.9892578125 4698.74365234375 L 3357.068115234375 4698.74365234375 L 3362.208251953125 4697.14111328125 L 3365.33056640625 4697.14111328125 L 3368.41015625 4698.74365234375 L 3374.36083984375 4702.79443359375 L 3378.141845703125 4704.90673828125 L 3402.99853515625 4716.2412109375 L 3406.69287109375 4725.3017578125 L 3413.73828125 4734.3828125 L 3420.199951171875 4736.0810546875 L 3426.718017578125 4734.3828125 L 3433.771484375 4736.0810546875 L 3439.82177734375 4734.3828125 L 3446.453857421875 4731.12841796875 L 3449.88623046875 4726.68701171875 L 3455.78857421875 4725.3017578125 L 3463.314697265625 4720.32958984375 L 3468.263671875 4720.32958984375 L 3470.762939453125 4717.9677734375 L 3476.13525390625 4717.9677734375 L 3480.779541015625 4713.84521484375 L 3490.3623046875 4711.373046875 L 3498.748291015625 4707.552734375 L 3505.9453125 4704.90673828125 L 3512.196533203125 4704.90673828125 L 3515.37890625 4704.90673828125 L 3522.17138671875 4707.552734375 L 3527.028564453125 4708.8134765625 L 3531.947265625 4708.8134765625 L 3535.15869140625 4711.373046875 L 3539.639892578125 4711.373046875 L 3543.377197265625 4713.84521484375 L 3545.9853515625 4714.982421875 L 3549.564453125 4712.3623046875 L 3553.413330078125 4710.787109375 L 3561.97509765625 4708.8134765625 L 3564.5634765625 4704.90673828125 L 3569.329833984375 4702.79443359375 L 3574.097412109375 4698.74365234375 L 3578.012939453125 4695.2783203125 L 3583.46630859375 4695.2783203125 L 3586.24462890625 4691.0146484375 L 3596.504150390625 4693.3369140625 L 3599.52392578125 4691.0146484375 L 3606.09619140625 4691.0146484375 L 3615.217041015625 4693.3369140625 L 3620.109619140625 4698.74365234375 L 3627.00146484375 4698.74365234375 L 3633.90673828125 4701.03955078125 L 3639.43017578125 4702.79443359375 L 3645.7294921875 4704.90673828125 L 3653.125732421875 4708.8134765625 L 3659.161865234375 4713.84521484375 L 3663.013671875 4713.84521484375 L 3663.687744140625 4716.705078125 L 3666.424072265625 4717.734375 L 3668.536865234375 4720.712890625 L 3671.030029296875 4722.1328125 L 3672.457275390625 4723.8974609375 L 3675.341796875 4725.0791015625 L 3676.452880859375 4728.150390625 L 3686.52783203125 4731.12841796875 L 3695.2060546875 4723.8974609375 L 3702.30419921875 4717.9677734375 L 3709.593017578125 4716.2412109375 L 3715.019775390625 4710.787109375 L 3723.703369140625 4710.787109375 L 3734.3515625 4716.2412109375 L 3748.348388671875 4723.8974609375 L 3759.17578125 4722.1328125 L 3772.658935546875 4720.712890625 L 3782.77490234375 4728.150390625 L 3791.70703125 4725.3017578125 L 3797.3671875 4722.1328125 L 3808.42626953125 4723.8974609375 L 3814.209716796875 4728.150390625 L 3824.167236328125 4731.12841796875 L 3836.408203125 4728.150390625 L 3842.52978515625 4723.8974609375 L 3853.585205078125 4725.3017578125 L 3859.22314453125 4722.1328125 L 3864.588134765625 4723.8974609375 L 3873.20654296875 4717.9677734375 L 3880.950927734375 4722.1328125 L 3890.426513671875 4720.712890625 L 3900.65625 4722.1328125 L 3918.1806640625 4720.712890625 L 3929.934326171875 4722.1328125 L 3939.8486328125 4717.9677734375 L 3949.322265625 4722.1328125 L 3956.435546875 4728.150390625 L 3967.45166015625 4725.0791015625 L 3977.016845703125 4722.1328125 L 3985.773193359375 4717.9677734375 L 3993.885498046875 4717.9677734375 L 4001.6689453125 4720.712890625 L 4006.3974609375 4725.0791015625 L 4014.30615234375 4716.2412109375 L 4024.56787109375 4710.787109375 L 4033.21044921875 4704.90673828125 L 4041.847412109375 4702.79443359375 L 4047.53564453125 4696.65869140625 L 4055.793701171875 4696.65869140625 L 4065.26171875 4696.65869140625 L 4072.322509765625 4701.03955078125 L 4084.5673828125 4704.90673828125 L 4095.495849609375 4710.787109375 L 4107.82666015625 4716.2412109375 L 4116.36669921875 4720.712890625 L 4120.8876953125 4720.712890625 L 4129.7802734375 4716.2412109375 L 4134.83740234375 4710.787109375 L 4142.365234375 4704.90673828125 L 4150.50537109375 4702.79443359375 L 4158.89404296875 4698.7392578125 L 4167.28271484375 4698.7392578125 L 4175.94970703125 4701.03955078125 L 4184.78662109375 4702.79443359375 L 4191.8193359375 4707.66552734375 L 4201.70751953125 4716.2412109375 L 4213.9765625 4717.9677734375 L 4224.58740234375 4723.8974609375 L 4240.34912109375 4728.150390625 L 4252.6796875 4731.19921875 L 4264.33837890625 4733.837890625 L 4273.6513671875 4733.837890625 L 4280.40966796875 4728.150390625 L 4289.33447265625 4725.0791015625 L 4297.03369140625 4720.712890625 L 4307.31396484375 4716.2412109375 L 4318.1064453125 4710.787109375 L 4325.83203125 4707.66552734375 L 4334.05419921875 4707.66552734375 L 4338.7080078125 4701.03955078125 L 4342.99560546875 4698.7392578125 L 4347.86767578125 4696.65869140625 L 4353.19189453125 4696.65869140625 L 4356.79248046875 4701.03955078125 L 4364.09228515625 4702.79443359375 L 4370.0888671875 4707.66552734375 L 4379.732421875 4714.26318359375 L 4384.1416015625 4717.9677734375 L 4389.47119140625 4728.150390625 L 4394.25390625 4723.8974609375 L 4398.02587890625 4720.712890625 L 4401.54052734375 4725.0791015625 L 4410.4482421875 4731.19921875 L 4416.58642578125 4733.837890625 L 4422.8447265625 4733.837890625 L 4427.19384765625 4741.1640625 L 4433.6083984375 4746.93994140625 L 4442.697265625 4743.58251953125 L 4450.5185546875 4741.1640625 L 4461.44091796875 4746.93994140625 L 4471.55908203125 4752.5087890625 L 4478.47998046875 4757.9599609375 L 4491.01416015625 4757.9599609375 L 4501.70361328125 4757.9599609375 L 4512.275390625 4759.8779296875 L 4522.0888671875 4754.8095703125 L 4533.171875 4752.5087890625 L 4546.97802734375 4754.8095703125 L 4557.9306640625 4759.8779296875 L 4568.5322265625 4771.47119140625 L 4579.9873046875 4776.64208984375 L 4590.83349609375 4780.1806640625 L 4602.07373046875 4780.1806640625 L 4615.4765625 4780.1806640625 L 4625.5234375 4776.64208984375 L 4634.69287109375 4780.1806640625 L 4643.7216796875 4776.64208984375 L 4654.943359375 4776.64208984375 L 4668.4638671875 4776.64208984375 L 4675.20556640625 4771.47119140625 L 4684.6826171875 4764.408203125 L 4694.75 4754.8095703125 L 4713.01953125 4746.93994140625 L 4722.978515625 4743.58251953125 L 4733.6455078125 4746.93994140625 L 4742.47119140625 4743.58251953125 L 4747.45947265625 4749.080078125 L 4755.7265625 4749.080078125 L 4765.46533203125 4754.8095703125 L 4776.544921875 4759.8779296875 L 4791.23828125 4759.8779296875 L 4807.97802734375 4754.8095703125 L 4822.7646484375 4754.8095703125 L 4833.73583984375 4754.8095703125 L 4842.14306640625 4757.9599609375 L 4855.70068359375 4759.8779296875 L 4872.32666015625 4762.3056640625 L 4886.30126953125 4759.8779296875 L 4899.1435546875 4757.9599609375 L 4913.91162109375 4757.9599609375 L 4930.3095703125 4752.5087890625 L 4949.12255859375 4749.080078125 L 4958.99755859375 4743.58251953125 L 4970.4169921875 4738.97900390625 L 4979.591796875 4735.97802734375 L 4983.24072265625 4743.58251953125 L 4995.3046875 4743.58251953125 L 5002.583984375 4746.93994140625 L 5015.46923828125 4746.93994140625 L 5024.00390625 4743.58251953125 L 5032.96923828125 4743.58251953125 L 5037.32080078125 4746.93994140625 L 5048.2734375 4752.5087890625 L 5062.05517578125 4746.93994140625 L 5071.5751953125 4746.93994140625 L 5074.9404296875 4746.93994140625 L 5074.9404296875 5097.21142578125 Z"/></g></g></svg>