<svg xmlns="http://www.w3.org/2000/svg" xmlns:xlink="http://www.w3.org/1999/xlink" width="1919" height="343" viewBox="0 0 1919 343"><defs><style>.a{clip-path:url(#b);}.b{fill:#500;stroke-linecap:round;stroke-linejoin:round;}.c,.d{stroke:none;}.d{fill:#ab1a59;}</style><clipPath id="b"><rect width="1919" height="343"/></clipPath></defs><g id="a" class="a"><g class="b" transform="translate(-3155 -4747)"><path class="c" d="M 5074.5 5091.060546875 L 3154.431640625 5091.060546875 L 3154.431640625 4798.5595703125 L 3224.70458984375 4791.00830078125 L 3273.23486328125 4798.6044921875 L 3273.2734375 4798.6103515625 L 3273.312255859375 4798.6103515625 L 3331.69189453125 4798.6103515625 L 3352.15478515625 4809.31689453125 L 3352.314208984375 4809.400390625 L 3352.489990234375 4809.36328125 L 3403.44287109375 4798.6103515625 L 3450.80810546875 4798.6103515625 L 3517.218994140625 4809.36767578125 L 3517.32177734375 4809.38427734375 L 3517.422607421875 4809.3583984375 L 3559.39208984375 4798.6279296875 L 3597.522216796875 4809.35546875 L 3597.588623046875 4809.3740234375 L 3597.65771484375 4809.3740234375 L 3656.38818359375 4809.3740234375 L 3656.4296875 4809.3740234375 L 3656.470703125 4809.3671875 L 3720.978759765625 4798.60498046875 L 3775.60009765625 4791.0126953125 L 3805.174072265625 4798.5947265625 L 3805.284912109375 4798.623046875 L 3805.396728515625 4798.6005859375 L 3843.17724609375 4791.0205078125 L 3897.646240234375 4809.34765625 L 3897.667724609375 4809.35498046875 L 3897.689453125 4809.3603515625 L 3938.8857421875 4819.21484375 L 3938.975341796875 4819.236328125 L 3939.066650390625 4819.224609375 L 4015.0302734375 4809.3779296875 L 4100.6796875 4819.22509765625 L 4100.73583984375 4819.2314453125 L 4100.79248046875 4819.2255859375 L 4188.58349609375 4809.3798828125 L 4234.80517578125 4819.21728515625 L 4234.8564453125 4819.228515625 L 4234.9091796875 4819.228515625 L 4247.22509765625 4819.228515625 L 4304.818359375 4819.228515625 L 4305.00537109375 4819.228515625 L 4305.146484375 4819.10546875 L 4328.666015625 4798.646484375 L 4385.80078125 4809.365234375 L 4385.9296875 4809.3896484375 L 4386.0537109375 4809.34716796875 L 4439.994140625 4791.013671875 L 4504.50390625 4798.60693359375 L 4580.0966796875 4809.369140625 L 4580.26708984375 4809.39306640625 L 4580.41650390625 4809.30712890625 L 4612.19189453125 4791.00390625 L 4655.1875 4791.00390625 L 4655.22998046875 4791.00390625 L 4655.271484375 4790.99658203125 L 4698.9697265625 4783.54443359375 L 4750.2177734375 4775.00830078125 L 4780.9169921875 4775.00830078125 L 4780.9765625 4775.00830078125 L 4781.03466796875 4774.994140625 L 4820.11279296875 4765.52880859375 L 4864.3935546875 4765.52880859375 L 4906.69091796875 4765.52880859375 L 4943.73876953125 4774.99267578125 L 4943.85986328125 4775.0234375 L 4943.98046875 4774.994140625 L 4982.9150390625 4765.5439453125 L 5019.8291015625 4774.99267578125 L 5019.99853515625 4775.03564453125 L 5020.15771484375 4774.96435546875 L 5041.31787109375 4765.48486328125 L 5041.4599609375 4765.42138671875 L 5041.54052734375 4765.2880859375 L 5052.279296875 4747.58642578125 L 5074.5 4747.58642578125 L 5074.5 5091.060546875 Z"/><path class="d" d="M 5074 5090.560546875 L 5074 4748.08642578125 L 5052.56103515625 4748.08642578125 L 5041.96826171875 4765.54736328125 C 5041.86279296875 4765.720703125 5041.70703125 4765.8583984375 5041.52197265625 4765.94140625 L 5020.36181640625 4775.4208984375 C 5020.232421875 4775.47900390625 5020.09326171875 4775.50830078125 5019.953125 4775.50830078125 C 5019.8701171875 4775.50830078125 5019.78662109375 4775.498046875 5019.70556640625 4775.47705078125 L 4982.9111328125 4766.05908203125 L 4944.0986328125 4775.47998046875 C 4944.02099609375 4775.4990234375 4943.94189453125 4775.50830078125 4943.86279296875 4775.50830078125 C 4943.77978515625 4775.50830078125 4943.6962890625 4775.498046875 4943.615234375 4775.47705078125 L 4906.62841796875 4766.02880859375 L 4864.3935546875 4766.02880859375 L 4820.1728515625 4766.02880859375 L 4781.15234375 4775.47998046875 C 4781.0751953125 4775.49853515625 4780.99609375 4775.50830078125 4780.9169921875 4775.50830078125 L 4750.26025390625 4775.50830078125 L 4699.0537109375 4784.037109375 L 4655.35546875 4791.48974609375 C 4655.30029296875 4791.4990234375 4655.244140625 4791.50390625 4655.1875 4791.50390625 L 4612.3251953125 4791.50390625 L 4580.666015625 4809.740234375 C 4580.513671875 4809.828125 4580.34130859375 4809.8740234375 4580.1669921875 4809.8740234375 C 4580.1201171875 4809.8740234375 4580.07275390625 4809.87060546875 4580.02587890625 4809.86376953125 L 4504.4345703125 4799.10205078125 L 4440.04833984375 4791.5234375 L 4386.21484375 4809.82080078125 C 4386.11083984375 4809.85595703125 4386.001953125 4809.8740234375 4385.89306640625 4809.8740234375 C 4385.83154296875 4809.8740234375 4385.76953125 4809.8681640625 4385.70849609375 4809.85693359375 L 4328.81201171875 4799.1826171875 L 4305.47509765625 4819.48291015625 C 4305.29296875 4819.64111328125 4305.0595703125 4819.728515625 4304.818359375 4819.728515625 L 4247.22509765625 4819.728515625 L 4234.9091796875 4819.728515625 C 4234.83935546875 4819.728515625 4234.76953125 4819.72119140625 4234.701171875 4819.70654296875 L 4188.55908203125 4809.8857421875 L 4100.84814453125 4819.72216796875 C 4100.81103515625 4819.7265625 4100.7734375 4819.728515625 4100.736328125 4819.728515625 C 4100.6982421875 4819.728515625 4100.66015625 4819.7265625 4100.62255859375 4819.72216796875 L 4015.03271484375 4809.88134765625 L 3939.130859375 4819.72021484375 C 3939.087890625 4819.7255859375 3939.044921875 4819.728515625 3939.001708984375 4819.728515625 C 3938.923828125 4819.728515625 3938.845703125 4819.71923828125 3938.76953125 4819.701171875 L 3897.5732421875 4809.8466796875 C 3897.544189453125 4809.83984375 3897.515380859375 4809.83154296875 3897.487060546875 4809.82177734375 L 3843.144287109375 4791.537109375 L 3805.4951171875 4799.0908203125 C 3805.43017578125 4799.10400390625 3805.3642578125 4799.1103515625 3805.298583984375 4799.1103515625 C 3805.215087890625 4799.1103515625 3805.131591796875 4799.10009765625 3805.050048828125 4799.0791015625 L 3775.571533203125 4791.521484375 L 3721.05908203125 4799.0986328125 L 3656.552734375 4809.8603515625 C 3656.49853515625 4809.86962890625 3656.443359375 4809.8740234375 3656.38818359375 4809.8740234375 L 3597.65771484375 4809.8740234375 C 3597.566162109375 4809.8740234375 3597.47509765625 4809.861328125 3597.386962890625 4809.83642578125 L 3559.385986328125 4799.1455078125 L 3517.546630859375 4809.8427734375 C 3517.46533203125 4809.86328125 3517.382080078125 4809.8740234375 3517.298828125 4809.8740234375 C 3517.245361328125 4809.8740234375 3517.19189453125 4809.86962890625 3517.138916015625 4809.861328125 L 3450.767822265625 4799.1103515625 L 3403.494140625 4799.1103515625 L 3352.59326171875 4809.85205078125 C 3352.52490234375 4809.86669921875 3352.45556640625 4809.8740234375 3352.386474609375 4809.8740234375 C 3352.22607421875 4809.8740234375 3352.06689453125 4809.83544921875 3351.923095703125 4809.759765625 L 3331.569580078125 4799.1103515625 L 3273.312255859375 4799.1103515625 C 3273.260498046875 4799.1103515625 3273.208740234375 4799.1064453125 3273.157470703125 4799.09814453125 L 3224.693115234375 4791.51220703125 L 3154.931640625 4799.0087890625 L 3154.931640625 5090.560546875 L 5074 5090.560546875 M 5075 5091.560546875 L 3153.931640625 5091.560546875 L 3153.931640625 4798.1103515625 L 3224.717041015625 4790.50390625 L 3273.312255859375 4798.1103515625 L 3331.815185546875 4798.1103515625 L 3352.38671875 4808.8740234375 L 3403.390380859375 4798.1103515625 L 3450.848388671875 4798.1103515625 L 3517.298828125 4808.8740234375 L 3559.3984375 4798.1103515625 L 3597.65771484375 4808.8740234375 L 3656.38818359375 4808.8740234375 L 3720.905517578125 4798.1103515625 L 3775.628662109375 4790.50390625 L 3805.29833984375 4798.1103515625 L 3843.2099609375 4790.50390625 L 3897.805908203125 4808.8740234375 L 3939.002197265625 4818.728515625 L 4015.026123046875 4808.8740234375 L 4100.73681640625 4818.728515625 L 4188.6083984375 4808.8740234375 L 4234.9091796875 4818.728515625 L 4247.22509765625 4818.728515625 L 4304.818359375 4818.728515625 L 4328.5205078125 4798.1103515625 L 4385.89306640625 4808.8740234375 L 4439.9404296875 4790.50390625 L 4504.56494140625 4798.1103515625 L 4580.1669921875 4808.8740234375 L 4612.05810546875 4790.50390625 L 4655.1875 4790.50390625 L 4698.8857421875 4783.05126953125 L 4750.17724609375 4774.50830078125 L 4780.9169921875 4774.50830078125 L 4820.05322265625 4765.02880859375 L 4864.3935546875 4765.02880859375 L 4906.75390625 4765.02880859375 L 4943.86279296875 4774.50830078125 L 4982.91796875 4765.02880859375 L 5019.953125 4774.50830078125 L 5041.11328125 4765.02880859375 L 5051.998046875 4747.08642578125 L 5075 4747.08642578125 L 5075 5091.560546875 Z"/></g></g></svg>