<svg xmlns="http://www.w3.org/2000/svg" xmlns:xlink="http://www.w3.org/1999/xlink" width="1917" height="667" viewBox="0 0 1917 667"><defs><style>.a{clip-path:url(#b);}.b{fill:#790128;stroke-linecap:round;stroke-linejoin:round;}.c,.d{stroke:none;}.d{fill:#8a1772;}</style><clipPath id="b"><rect width="1917" height="667"/></clipPath></defs><g id="a" class="a"><g class="b" transform="translate(-3156 -4434)"><path class="c" d="M 5074.15478515625 5102.45703125 L 3155.5 5102.45703125 L 3155.5 4700.416015625 L 3186.482421875 4710.486328125 L 3186.648681640625 4710.5400390625 L 3186.812255859375 4710.47900390625 L 3214.098388671875 4700.2705078125 L 3235.4462890625 4710.4619140625 L 3235.65625 4710.56201171875 L 3235.8681640625 4710.46630859375 L 3258.45263671875 4700.2275390625 L 3270.25048828125 4700.2275390625 L 3288.134033203125 4710.44482421875 L 3288.342529296875 4710.56396484375 L 3288.56591796875 4710.4755859375 L 3314.52001953125 4700.21435546875 L 3349.2353515625 4695.44580078125 L 3372.025390625 4695.44580078125 L 3395.3017578125 4700.21728515625 L 3395.698486328125 4700.298828125 L 3395.860595703125 4699.92724609375 L 3401.095703125 4687.9130859375 L 3404.986328125 4684.5859375 L 3412.938720703125 4684.5859375 L 3415.5859375 4687.9189453125 L 3415.658447265625 4688.01025390625 L 3415.763916015625 4688.06005859375 L 3423.79345703125 4691.85400390625 L 3423.894775390625 4691.90185546875 L 3424.0068359375 4691.90185546875 L 3429.974609375 4691.90185546875 L 3430.109619140625 4691.90185546875 L 3430.22607421875 4691.833984375 L 3442.72509765625 4684.55810546875 L 3457.127197265625 4681.46240234375 L 3469.18017578125 4688.046875 L 3469.34765625 4688.13818359375 L 3469.533447265625 4688.0947265625 L 3484.537841796875 4684.60107421875 L 3497.90673828125 4688.091796875 L 3498.072998046875 4688.134765625 L 3498.23095703125 4688.06689453125 L 3513.5576171875 4681.4619140625 L 3525.479248046875 4684.56982421875 L 3525.677978515625 4684.62158203125 L 3525.85546875 4684.51904296875 L 3537.760498046875 4677.64404296875 L 3554.43994140625 4681.421875 L 3554.60888671875 4681.46044921875 L 3554.764892578125 4681.38623046875 L 3562.59228515625 4677.66748046875 L 3576.845458984375 4684.53662109375 L 3577.109375 4684.66357421875 L 3577.349365234375 4684.49560546875 L 3592.45458984375 4673.9306640625 L 3598.468994140625 4677.51220703125 L 3605.560302734375 4684.443359375 L 3605.992919921875 4684.8662109375 L 3606.32666015625 4684.36181640625 L 3610.79248046875 4677.61328125 L 3615.903076171875 4677.61328125 L 3616.013671875 4677.61328125 L 3616.11376953125 4677.56640625 L 3624.14111328125 4673.83544921875 L 3635.4296875 4673.83544921875 L 3652.305908203125 4673.83544921875 L 3652.380126953125 4673.83544921875 L 3652.451416015625 4673.81396484375 L 3665.29541015625 4669.90576171875 L 3673.83740234375 4673.79052734375 L 3674.00634765625 4673.86767578125 L 3674.1845703125 4673.8154296875 L 3687.563720703125 4669.9033203125 L 3696.478515625 4673.7939453125 L 3696.63134765625 4673.8603515625 L 3696.79345703125 4673.822265625 L 3713.5458984375 4669.859375 L 3713.719482421875 4669.81787109375 L 3713.828125 4669.67626953125 L 3718.34033203125 4663.78125 L 3727.2158203125 4663.78125 L 3727.359619140625 4663.78125 L 3727.481201171875 4663.70458984375 L 3738.42431640625 4656.84619140625 L 3751.606201171875 4649.833984375 L 3761.623046875 4649.833984375 L 3761.7333984375 4649.833984375 L 3761.833251953125 4649.78759765625 L 3769.995361328125 4646.00537109375 L 3770.124267578125 4645.94580078125 L 3770.202392578125 4645.82763671875 L 3773.599365234375 4640.6865234375 L 3778.5126953125 4640.6865234375 L 3778.614013671875 4640.6865234375 L 3778.707275390625 4640.64697265625 L 3793.831298828125 4634.25146484375 L 3800.693603515625 4631.69287109375 L 3810.137451171875 4631.69287109375 L 3810.33203125 4631.69287109375 L 3810.4755859375 4631.56103515625 L 3818.331787109375 4624.3515625 L 3818.49365234375 4624.203125 L 3818.49365234375 4623.9833984375 L 3818.49365234375 4618.18359375 L 3833.12548828125 4615.41015625 L 3833.155517578125 4615.404296875 L 3833.1845703125 4615.39501953125 L 3844.671630859375 4611.724609375 L 3844.76513671875 4611.69482421875 L 3844.840576171875 4611.6318359375 L 3855.021484375 4603.10595703125 L 3873.785400390625 4598.55029296875 L 3873.861328125 4598.53173828125 L 3873.92822265625 4598.4912109375 L 3888.60986328125 4589.5283203125 L 3898.7666015625 4593.02685546875 L 3898.845703125 4593.0537109375 L 3898.929443359375 4593.0537109375 L 3904.885009765625 4593.0537109375 L 3905.06689453125 4593.0537109375 L 3905.206298828125 4592.93701171875 L 3913.436767578125 4586.03515625 L 3913.492431640625 4585.98828125 L 3913.53271484375 4585.927734375 L 3919.0986328125 4577.51123046875 L 3936.76708984375 4580.5078125 L 3937.2568359375 4580.5908203125 L 3937.343017578125 4580.1015625 C 3937.3466796875 4580.0810546875 3937.712890625 4578.02001953125 3938.35302734375 4575.95703125 C 3939.4814453125 4572.32080078125 3940.434814453125 4571.92919921875 3940.699951171875 4571.8955078125 C 3941.364501953125 4571.8115234375 3942.730712890625 4571.76904296875 3944.76123046875 4571.76904296875 C 3948.245849609375 4571.76904296875 3952.50341796875 4571.89794921875 3952.5458984375 4571.8994140625 L 3952.6005859375 4571.90087890625 L 3952.654052734375 4571.890625 L 3965.9462890625 4569.37841796875 L 3966.065185546875 4569.35595703125 L 3966.16064453125 4569.28125 L 3974.7158203125 4562.6142578125 L 3974.819580078125 4562.53369140625 L 3974.8701171875 4562.412109375 L 3977.9296875 4555.0576171875 L 3983.980224609375 4555.0576171875 L 3984.19921875 4555.0576171875 L 3984.347900390625 4554.896484375 L 3991.385009765625 4547.2626953125 L 3991.478759765625 4547.1611328125 L 3991.5068359375 4547.025390625 L 3992.575439453125 4541.8828125 L 3998.580322265625 4540.96142578125 L 3998.74658203125 4540.93603515625 L 3998.86376953125 4540.81494140625 L 4005.886962890625 4533.5576171875 L 4005.96826171875 4533.4736328125 L 4006.00390625 4533.3623046875 L 4007.37255859375 4529.07861328125 L 4009.173828125 4526.95263671875 L 4013.515869140625 4525.75390625 L 4013.771240234375 4525.68310546875 L 4013.856201171875 4525.4326171875 L 4015.681396484375 4520.060546875 L 4015.6845703125 4520.0517578125 L 4015.687255859375 4520.04296875 L 4016.921142578125 4515.91796875 L 4019.902099609375 4517.4072265625 L 4020.364501953125 4517.63818359375 L 4020.580322265625 4517.16845703125 L 4023.10009765625 4511.677734375 L 4027.643310546875 4509.76904296875 L 4027.820556640625 4509.69482421875 L 4027.902099609375 4509.52099609375 L 4029.967041015625 4505.1357421875 L 4034.060302734375 4503.18408203125 L 4034.141845703125 4503.14501953125 L 4034.204833984375 4503.080078125 L 4037.115966796875 4500.06396484375 L 4040.40673828125 4500.06396484375 L 4040.5732421875 4500.06396484375 L 4040.70703125 4499.9638671875 L 4045.511962890625 4496.35693359375 L 4052.87109375 4494.3115234375 L 4060.3095703125 4492.716796875 L 4060.449462890625 4492.68701171875 L 4060.552490234375 4492.58740234375 L 4067.786865234375 4485.587890625 L 4073.74755859375 4481.22412109375 L 4079.203125 4479.40283203125 L 4079.30078125 4479.3701171875 L 4079.377685546875 4479.30126953125 L 4085.279296875 4474.03857421875 L 4091.086181640625 4471.69091796875 L 4091.163330078125 4471.65966796875 L 4091.22607421875 4471.60498046875 L 4096.517578125 4467.02294921875 L 4103.76318359375 4465.2197265625 L 4103.8740234375 4465.19189453125 L 4103.9619140625 4465.119140625 L 4108.267578125 4461.54736328125 L 4113.1025390625 4461.54736328125 L 4113.1611328125 4461.54736328125 L 4113.21826171875 4461.53369140625 L 4117.8251953125 4460.43896484375 L 4124.58935546875 4460.43896484375 L 4124.630859375 4460.43896484375 L 4124.67236328125 4460.43212890625 L 4130.36376953125 4459.47509765625 L 4136.24267578125 4460.4326171875 L 4136.447265625 4460.4658203125 L 4136.61572265625 4460.3447265625 L 4141.0029296875 4457.185546875 L 4145.75341796875 4456.18798828125 L 4145.94580078125 4456.1474609375 L 4146.05908203125 4455.98681640625 L 4148.5 4452.52490234375 L 4154.9306640625 4452.52490234375 L 4155.12451171875 4452.52490234375 L 4155.267578125 4452.39453125 L 4159.32275390625 4448.6982421875 L 4163.65966796875 4449.9423828125 L 4164.13916015625 4450.080078125 L 4164.27783203125 4449.6005859375 L 4165.4990234375 4445.37744140625 L 4171.14892578125 4443.1318359375 L 4171.1416015625 4443.134765625 L 4175.71923828125 4441.39892578125 L 4175.875 4441.33935546875 L 4175.96435546875 4441.19873046875 L 4178.2392578125 4437.60693359375 L 4179.3818359375 4435.7744140625 L 4181.22998046875 4434.5791015625 L 4183.43017578125 4434.5791015625 L 4185.02294921875 4435.81103515625 L 4185.09619140625 4435.8671875 L 4185.1845703125 4435.89404296875 L 4188.10791015625 4436.77685546875 L 4191.583984375 4437.794921875 L 4195.15087890625 4440.36328125 L 4195.19970703125 4440.3984375 L 4195.2548828125 4440.4208984375 L 4199.80126953125 4442.26318359375 L 4199.84423828125 4442.2802734375 L 4199.8896484375 4442.28955078125 L 4204.14501953125 4443.1572265625 L 4204.240234375 4443.17626953125 L 4204.33544921875 4443.15869140625 L 4208.92724609375 4442.314453125 L 4211.44384765625 4443.14208984375 L 4214.9423828125 4444.294921875 L 4215.01904296875 4444.3203125 L 4215.09912109375 4444.3203125 L 4219.884765625 4444.3203125 L 4220.04296875 4444.3203125 L 4220.17236328125 4444.2294921875 L 4223.01708984375 4442.22998046875 L 4224.65380859375 4441.40673828125 L 4229.060546875 4440.45751953125 L 4232.8798828125 4440.45751953125 L 4237.7275390625 4441.4072265625 L 4243.0087890625 4444.26025390625 L 4243 4444.25537109375 L 4248.87255859375 4447.580078125 L 4248.8955078125 4447.59326171875 L 4248.919921875 4447.60400390625 L 4254.21630859375 4449.9013671875 L 4260.61279296875 4454.2822265625 L 4260.6640625 4454.3173828125 L 4260.72265625 4454.3388671875 L 4265.6845703125 4456.16796875 L 4265.74072265625 4456.1884765625 L 4265.7998046875 4456.1953125 L 4274.48876953125 4457.2021484375 L 4278.177734375 4459.39794921875 L 4278.25927734375 4459.4462890625 L 4278.35205078125 4459.46142578125 L 4284.23388671875 4460.43212890625 L 4284.29296875 4460.44189453125 L 4284.35205078125 4460.4375 L 4297.5224609375 4459.4697265625 L 4307.998046875 4460.43701171875 L 4308.05712890625 4460.4423828125 L 4308.11572265625 4460.43359375 L 4314.78857421875 4459.462890625 L 4314.82373046875 4459.4580078125 L 4314.85791015625 4459.44775390625 L 4322.47119140625 4457.197265625 L 4322.47412109375 4457.1962890625 L 4322.4775390625 4457.1953125 L 4325.77099609375 4456.17626953125 L 4325.8173828125 4456.162109375 L 4325.8603515625 4456.138671875 L 4329.13916015625 4454.36962890625 L 4334.25537109375 4454.36962890625 L 4336.71728515625 4456.1064453125 L 4341.10498046875 4459.36962890625 L 4341.0986328125 4459.3642578125 L 4345.80078125 4462.9814453125 L 4345.8623046875 4463.02880859375 L 4345.93505859375 4463.0556640625 L 4350.95556640625 4464.8759765625 L 4352.81787109375 4468.5087890625 L 4352.85693359375 4468.5849609375 L 4352.91943359375 4468.6435546875 L 4358.0810546875 4473.52978515625 L 4358.19140625 4473.63427734375 L 4358.34130859375 4473.65966796875 L 4363.451171875 4474.52392578125 L 4366.6396484375 4478.23974609375 L 4366.67431640625 4478.28076171875 L 4366.71728515625 4478.31298828125 L 4372.2236328125 4482.482421875 L 4377.9990234375 4487.2587890625 L 4378.02490234375 4487.2802734375 L 4378.05322265625 4487.2978515625 L 4383.3134765625 4490.57080078125 L 4389.11572265625 4496.0888671875 L 4389.1220703125 4496.09521484375 L 4389.12939453125 4496.1015625 L 4396.259765625 4502.392578125 L 4396.26806640625 4502.39990234375 L 4396.2763671875 4502.40625 L 4402.23291015625 4507.22021484375 L 4402.25244140625 4507.236328125 L 4402.27294921875 4507.24951171875 L 4408.6328125 4511.4228515625 L 4413.76171875 4515.77001953125 L 4418.3310546875 4521.47021484375 L 4418.40673828125 4521.5654296875 L 4418.517578125 4521.6142578125 L 4425.61181640625 4524.7763671875 L 4430.0205078125 4529.46533203125 L 4430.05712890625 4529.50390625 L 4430.10107421875 4529.5341796875 L 4436.083984375 4533.65771484375 L 4440.6787109375 4537.7529296875 L 4440.77392578125 4537.837890625 L 4440.89892578125 4537.86669921875 L 4448.4814453125 4539.61572265625 L 4456.5166015625 4542.41455078125 L 4461.28955078125 4547.22607421875 L 4461.43603515625 4547.3740234375 L 4461.64453125 4547.3740234375 L 4465.66455078125 4547.3740234375 L 4469.5126953125 4547.3740234375 L 4469.85205078125 4547.3740234375 L 4469.97705078125 4547.05859375 L 4471.39453125 4543.4970703125 L 4474.55615234375 4543.4970703125 L 4476.53759765625 4544.76708984375 L 4478.55859375 4547.17529296875 L 4481.2880859375 4551.24267578125 L 4481.3857421875 4551.388671875 L 4481.5537109375 4551.44140625 L 4488.32373046875 4553.56298828125 L 4491.6298828125 4556.07568359375 L 4491.62548828125 4556.07177734375 L 4495.86669921875 4559.3740234375 L 4496.0517578125 4559.51806640625 L 4496.28076171875 4559.46826171875 L 4500.16357421875 4558.619140625 L 4505.60009765625 4560.8916015625 L 4510.68212890625 4565.6962890625 L 4510.73876953125 4565.75 L 4510.80859375 4565.78369140625 L 4518.685546875 4569.57275390625 L 4518.70703125 4569.5830078125 L 4518.7294921875 4569.59130859375 L 4525.27197265625 4572.0029296875 L 4531.953125 4576.87841796875 L 4531.96826171875 4576.8896484375 L 4531.984375 4576.8994140625 L 4538.18115234375 4580.7490234375 L 4544.130859375 4585.56640625 L 4544.1787109375 4585.60546875 L 4544.23486328125 4585.63134765625 L 4550.74755859375 4588.6494140625 L 4556.62158203125 4592.46044921875 L 4556.64208984375 4592.4736328125 L 4556.6640625 4592.48486328125 L 4562.50732421875 4595.50634765625 L 4562.57080078125 4595.5390625 L 4562.640625 4595.552734375 L 4568.2841796875 4596.65869140625 L 4570.6181640625 4600.42529296875 L 4570.63720703125 4600.45654296875 L 4570.6611328125 4600.484375 L 4574.35791015625 4604.8671875 L 4574.54931640625 4605.09423828125 L 4574.83984375 4605.03515625 L 4579.13671875 4604.16259765625 L 4585.03759765625 4605.9560546875 L 4589.66650390625 4608.04833984375 L 4594.5478515625 4611.67529296875 L 4594.6181640625 4611.72802734375 L 4594.70263671875 4611.7529296875 L 4599.76611328125 4613.2646484375 L 4601.52734375 4616.61767578125 L 4601.66748046875 4616.88525390625 L 4601.9697265625 4616.88525390625 L 4605.55126953125 4616.88525390625 L 4608.6162109375 4619.18359375 L 4613.09912109375 4622.50732421875 L 4613.10498046875 4622.51123046875 L 4613.11083984375 4622.515625 L 4618.08740234375 4625.98486328125 L 4618.16064453125 4626.03564453125 L 4618.24658203125 4626.05810546875 L 4624.2470703125 4627.634765625 L 4626.91796875 4628.83837890625 L 4633.10400390625 4632.10302734375 L 4633.21337890625 4632.16064453125 L 4633.33740234375 4632.16064453125 L 4644.5390625 4632.16064453125 L 4652.0615234375 4635.56787109375 L 4652.10595703125 4635.587890625 L 4652.1533203125 4635.59912109375 L 4662.4169921875 4638.00830078125 L 4662.47314453125 4638.021484375 L 4662.53125 4638.021484375 L 4669.0751953125 4638.021484375 L 4676.1005859375 4638.021484375 L 4676.31884765625 4638.021484375 L 4676.46728515625 4637.861328125 L 4678.55322265625 4635.6123046875 L 4682.83447265625 4635.6123046875 L 4688.45751953125 4636.42041015625 L 4692.98681640625 4639.8125 L 4693.18310546875 4639.95947265625 L 4693.419921875 4639.89404296875 L 4696.92724609375 4638.92431640625 L 4701.6376953125 4640.6982421875 L 4701.763671875 4640.74560546875 L 4701.896484375 4640.7236328125 L 4706.39990234375 4639.9716796875 L 4707.07177734375 4641.677734375 L 4707.13818359375 4641.84521484375 L 4707.2958984375 4641.93212890625 L 4711.59912109375 4644.302734375 L 4710.6591796875 4647.1845703125 L 4710.54931640625 4647.52294921875 L 4710.83251953125 4647.73779296875 L 4713.49755859375 4649.7626953125 L 4715.7412109375 4654.91552734375 L 4715.8154296875 4655.0859375 L 4715.98291015625 4655.16650390625 L 4719.95556640625 4657.07666015625 L 4720.02490234375 4657.10986328125 L 4720.10107421875 4657.12109375 L 4727.2109375 4658.14501953125 L 4727.24658203125 4658.14990234375 L 4727.2822265625 4658.14990234375 L 4731.3046875 4658.14990234375 L 4733.81494140625 4661.41943359375 L 4734.0029296875 4661.6640625 L 4734.30615234375 4661.60546875 L 4742.36962890625 4660.05126953125 L 4746.5166015625 4661.47216796875 L 4746.5166015625 4664.212890625 L 4746.5166015625 4664.3994140625 L 4746.63916015625 4664.54052734375 L 4749.513671875 4667.85400390625 L 4749.6630859375 4668.0263671875 L 4749.89111328125 4668.0263671875 L 4756.76416015625 4668.0263671875 L 4760.6865234375 4670.30419921875 L 4760.77490234375 4670.35498046875 L 4760.8759765625 4670.36767578125 L 4767.80078125 4671.2255859375 L 4767.86181640625 4671.2333984375 L 4767.9228515625 4671.22607421875 L 4774.85205078125 4670.38623046875 L 4780.0615234375 4672.98876953125 L 4780.1044921875 4673.009765625 L 4780.150390625 4673.02294921875 L 4786.96875 4674.93310546875 L 4786.99072265625 4674.939453125 L 4787.0126953125 4674.943359375 L 4794.0595703125 4676.24560546875 L 4798.56982421875 4678.92333984375 L 4798.71630859375 4679.01025390625 L 4798.88525390625 4678.98974609375 L 4805.287109375 4678.2158203125 L 4808.69921875 4681.09619140625 L 4809.9951171875 4683.14453125 L 4810.16357421875 4683.4111328125 L 4810.4765625 4683.3740234375 L 4817.52099609375 4682.5361328125 L 4820.10009765625 4683.35400390625 L 4820.173828125 4683.37744140625 L 4820.25146484375 4683.37744140625 L 4825.55908203125 4683.37744140625 L 4825.59716796875 4683.37744140625 L 4825.63525390625 4683.37158203125 L 4831.04443359375 4682.537109375 L 4837.966796875 4684.3916015625 L 4838.07958984375 4684.421875 L 4838.19482421875 4684.39892578125 L 4843.24462890625 4683.384765625 L 4850.24658203125 4684.4033203125 L 4850.24951171875 4684.40380859375 L 4850.251953125 4684.404296875 L 4857.79736328125 4685.41162109375 L 4857.8896484375 4685.423828125 L 4857.98046875 4685.40234375 L 4862.01806640625 4684.42919921875 L 4864.61572265625 4685.3310546875 L 4865.8935546875 4687.35107421875 L 4865.9638671875 4687.4619140625 L 4866.07958984375 4687.5244140625 L 4870.2158203125 4689.74267578125 L 4873.3369140625 4692.82958984375 L 4873.48291015625 4692.97412109375 L 4873.6884765625 4692.97412109375 L 4878.44287109375 4692.97412109375 L 4878.486328125 4692.97412109375 L 4878.529296875 4692.96630859375 L 4884.3466796875 4691.943359375 L 4887.60205078125 4691.943359375 L 4894.42041015625 4692.96875 L 4894.5166015625 4692.98291015625 L 4894.61083984375 4692.96044921875 L 4898.92431640625 4691.9296875 L 4899.0654296875 4691.89599609375 L 4899.16650390625 4691.7919921875 L 4901.142578125 4689.76123046875 L 4906.74072265625 4687.54833984375 L 4906.84033203125 4687.5087890625 L 4906.91552734375 4687.431640625 L 4908.9560546875 4685.330078125 L 4913.02978515625 4683.431640625 L 4916.8984375 4685.33984375 L 4920.552734375 4688.2900390625 L 4920.78173828125 4688.47509765625 L 4921.05517578125 4688.3642578125 L 4928.37060546875 4685.3896484375 L 4931.66845703125 4684.4677734375 L 4932.45654296875 4685.2353515625 L 4933.8525390625 4687.3583984375 L 4933.85009765625 4687.35400390625 L 4935.29833984375 4689.6064453125 L 4935.396484375 4689.75927734375 L 4935.5703125 4689.8134765625 L 4942.1953125 4691.87548828125 L 4944.4501953125 4694.666015625 L 4944.52734375 4694.76171875 L 4944.640625 4694.810546875 L 4952.1962890625 4698.0732421875 L 4956.71240234375 4700.2890625 L 4962.18115234375 4703.30712890625 L 4962.36376953125 4703.40771484375 L 4962.5634765625 4703.34912109375 L 4969.77392578125 4701.2333984375 L 4977.82958984375 4703.3310546875 L 4984.046875 4707.55078125 L 4984.13671875 4707.61181640625 L 4984.24365234375 4707.6298828125 L 4992.81103515625 4709.0869140625 L 4997.64599609375 4712.296875 L 4997.6708984375 4712.3134765625 L 4997.6982421875 4712.32666015625 L 5006.90283203125 4716.94873046875 L 5007.03955078125 4717.017578125 L 5007.19189453125 4716.99755859375 L 5013.5234375 4716.16650390625 L 5013.6162109375 4716.154296875 L 5013.69873046875 4716.109375 L 5016.98974609375 4714.30810546875 L 5022.71142578125 4714.30810546875 L 5024.8125 4718.15966796875 L 5024.95458984375 4718.419921875 L 5025.25146484375 4718.419921875 L 5030.5625 4718.419921875 L 5034.59033203125 4718.419921875 L 5034.708984375 4718.419921875 L 5034.81494140625 4718.36669921875 L 5039.18505859375 4716.1708984375 L 5044.50439453125 4716.1708984375 L 5047.51806640625 4718.32666015625 L 5047.59521484375 4718.3818359375 L 5047.6875 4718.40478515625 L 5054.2001953125 4720.0390625 L 5054.20947265625 4720.04150390625 L 5054.21875 4720.04345703125 L 5061.51123046875 4721.58056640625 L 5065.6982421875 4722.6083984375 L 5065.85888671875 4722.64794921875 L 5066.01123046875 4722.583984375 L 5068.3681640625 4721.59228515625 L 5071.91650390625 4721.59228515625 L 5072.04736328125 4721.59228515625 L 5072.1611328125 4721.5283203125 L 5074.15478515625 4720.40869140625 L 5074.15478515625 5102.45703125 Z"/><path class="d" d="M 4181.3779296875 4435.0791015625 L 4179.74658203125 4436.13427734375 L 4178.66552734375 4437.8681640625 C 4178.6640625 4437.8701171875 4178.6630859375 4437.87255859375 4178.66162109375 4437.8740234375 L 4176.38671875 4441.46630859375 C 4176.27099609375 4441.64892578125 4176.0986328125 4441.78955078125 4175.896484375 4441.8662109375 L 4171.33203125 4443.5966796875 L 4165.91162109375 4445.75146484375 L 4164.7578125 4449.73974609375 C 4164.63134765625 4450.17724609375 4164.23193359375 4450.4619140625 4163.7978515625 4450.4619140625 C 4163.70703125 4450.4619140625 4163.61376953125 4450.44970703125 4163.521484375 4450.4228515625 L 4159.453125 4449.255859375 L 4155.6044921875 4452.76416015625 C 4155.419921875 4452.931640625 4155.1796875 4453.02490234375 4154.9306640625 4453.02490234375 L 4148.75927734375 4453.02490234375 L 4146.4677734375 4456.27490234375 C 4146.322265625 4456.4814453125 4146.103515625 4456.62548828125 4145.85595703125 4456.67724609375 L 4141.20947265625 4457.65283203125 L 4136.90771484375 4460.75048828125 C 4136.736328125 4460.8740234375 4136.53173828125 4460.93896484375 4136.3232421875 4460.93896484375 C 4136.26953125 4460.93896484375 4136.2158203125 4460.9345703125 4136.16259765625 4460.92578125 L 4130.36572265625 4459.98193359375 L 4124.7548828125 4460.92529296875 C 4124.7001953125 4460.9345703125 4124.64453125 4460.93896484375 4124.58935546875 4460.93896484375 L 4117.8837890625 4460.93896484375 L 4113.333984375 4462.02001953125 C 4113.25830078125 4462.0380859375 4113.1806640625 4462.04736328125 4113.1025390625 4462.04736328125 L 4108.4482421875 4462.04736328125 L 4104.28076171875 4465.50390625 C 4104.16552734375 4465.599609375 4104.02978515625 4465.66845703125 4103.88427734375 4465.70458984375 L 4096.75390625 4467.4794921875 L 4091.55322265625 4471.98291015625 C 4091.47021484375 4472.05517578125 4091.37548828125 4472.11328125 4091.2734375 4472.154296875 L 4085.54736328125 4474.46923828125 L 4079.71044921875 4479.6748046875 C 4079.609375 4479.76513671875 4079.49072265625 4479.833984375 4079.36181640625 4479.876953125 L 4073.98046875 4481.673828125 L 4068.109375 4485.97119140625 L 4060.900390625 4492.94677734375 C 4060.76611328125 4493.07666015625 4060.59765625 4493.16650390625 4060.41455078125 4493.2060546875 L 4052.99169921875 4494.796875 L 4045.736328125 4496.8134765625 L 4041.0068359375 4500.36376953125 C 4040.833984375 4500.49365234375 4040.623046875 4500.56396484375 4040.40673828125 4500.56396484375 L 4037.32861328125 4500.56396484375 L 4034.564453125 4503.42724609375 C 4034.48095703125 4503.513671875 4034.38330078125 4503.583984375 4034.275390625 4503.63525390625 L 4030.34326171875 4505.51025390625 L 4028.3544921875 4509.73388671875 C 4028.24951171875 4509.95751953125 4028.06494140625 4510.13427734375 4027.8369140625 4510.22998046875 L 4023.47314453125 4512.06298828125 L 4021.03466796875 4517.376953125 C 4020.921875 4517.62353515625 4020.7138671875 4517.81298828125 4020.4580078125 4517.90283203125 C 4020.35009765625 4517.94091796875 4020.23779296875 4517.9599609375 4020.1259765625 4517.9599609375 C 4019.97216796875 4517.9599609375 4019.8193359375 4517.92431640625 4019.67919921875 4517.8544921875 L 4017.2294921875 4516.630859375 L 4016.166015625 4520.18603515625 C 4016.16259765625 4520.19775390625 4016.15869140625 4520.20947265625 4016.15478515625 4520.22119140625 L 4014.32958984375 4525.59375 C 4014.22314453125 4525.9072265625 4013.96826171875 4526.1474609375 4013.64892578125 4526.23583984375 L 4009.45556640625 4527.3935546875 L 4007.81884765625 4529.326171875 L 4006.47998046875 4533.5146484375 C 4006.43310546875 4533.6611328125 4006.35302734375 4533.794921875 4006.24609375 4533.9052734375 L 3999.22314453125 4541.16259765625 C 3999.0712890625 4541.31982421875 3998.87255859375 4541.42236328125 3998.65625 4541.45556640625 L 3992.99462890625 4542.32421875 L 3991.99658203125 4547.126953125 C 3991.9599609375 4547.3046875 3991.87548828125 4547.46875 3991.7529296875 4547.6015625 L 3984.7158203125 4555.2353515625 C 3984.5263671875 4555.44091796875 3984.259765625 4555.5576171875 3983.98046875 4555.5576171875 L 3978.26318359375 4555.5576171875 L 3975.33154296875 4562.6044921875 C 3975.26513671875 4562.763671875 3975.15869140625 4562.90283203125 3975.02294921875 4563.0087890625 L 3966.46826171875 4569.67578125 C 3966.3427734375 4569.77392578125 3966.19580078125 4569.84033203125 3966.0390625 4569.86962890625 L 3952.7470703125 4572.38232421875 C 3952.68603515625 4572.3935546875 3952.62353515625 4572.3994140625 3952.5615234375 4572.3994140625 C 3952.55126953125 4572.3994140625 3952.541015625 4572.3994140625 3952.53076171875 4572.39892578125 C 3952.48828125 4572.39794921875 3948.23779296875 4572.26904296875 3944.76123046875 4572.26904296875 C 3942.25830078125 4572.26904296875 3941.20556640625 4572.33544921875 3940.7626953125 4572.3916015625 C 3940.685546875 4572.4013671875 3940.36767578125 4572.599609375 3939.93994140625 4573.35546875 C 3939.56494140625 4574.017578125 3939.1923828125 4574.93994140625 3938.8330078125 4576.09716796875 C 3938.201171875 4578.13037109375 3937.8388671875 4580.16796875 3937.83544921875 4580.18798828125 C 3937.75 4580.6728515625 3937.328125 4581.01513671875 3936.8515625 4581.01513671875 C 3936.79638671875 4581.01513671875 3936.73974609375 4581.01025390625 3936.68310546875 4581.00048828125 L 3919.33642578125 4578.05859375 L 3913.94921875 4586.20361328125 C 3913.89599609375 4586.2841796875 3913.83154296875 4586.35595703125 3913.7578125 4586.41796875 L 3905.52734375 4593.31982421875 C 3905.34716796875 4593.470703125 3905.11962890625 4593.5537109375 3904.884765625 4593.5537109375 L 3898.9296875 4593.5537109375 C 3898.81884765625 4593.5537109375 3898.708984375 4593.53564453125 3898.60400390625 4593.4990234375 L 3888.669921875 4590.07763671875 L 3874.18896484375 4598.91796875 C 3874.1005859375 4598.9716796875 3874.00439453125 4599.01171875 3873.90380859375 4599.0361328125 L 3855.25341796875 4603.56396484375 L 3845.16162109375 4612.01513671875 C 3845.06201171875 4612.0986328125 3844.947265625 4612.16162109375 3844.82373046875 4612.201171875 L 3833.33642578125 4615.87158203125 C 3833.2978515625 4615.8837890625 3833.25830078125 4615.89404296875 3833.21826171875 4615.90185546875 L 3818.99365234375 4618.59765625 L 3818.99365234375 4623.9833984375 C 3818.99365234375 4624.26318359375 3818.8759765625 4624.53076171875 3818.669921875 4624.72021484375 L 3810.81396484375 4631.9296875 C 3810.62939453125 4632.0986328125 3810.38818359375 4632.19287109375 3810.1376953125 4632.19287109375 L 3800.783203125 4632.19287109375 L 3794.02001953125 4634.71484375 L 3778.90234375 4641.107421875 C 3778.77880859375 4641.15966796875 3778.646484375 4641.1865234375 3778.5126953125 4641.1865234375 L 3773.8681640625 4641.1865234375 L 3770.61962890625 4646.10302734375 C 3770.517578125 4646.2578125 3770.3740234375 4646.380859375 3770.20556640625 4646.458984375 L 3762.04345703125 4650.2412109375 C 3761.912109375 4650.30224609375 3761.7685546875 4650.333984375 3761.623046875 4650.333984375 L 3751.73095703125 4650.333984375 L 3738.67626953125 4657.2783203125 L 3727.74658203125 4664.12841796875 C 3727.58740234375 4664.228515625 3727.40380859375 4664.28125 3727.2158203125 4664.28125 L 3718.58740234375 4664.28125 L 3714.224609375 4669.98046875 C 3714.08447265625 4670.16357421875 3713.88525390625 4670.29248046875 3713.6611328125 4670.345703125 L 3696.90869140625 4674.30859375 C 3696.8330078125 4674.32666015625 3696.75537109375 4674.33544921875 3696.6787109375 4674.33544921875 C 3696.54150390625 4674.33544921875 3696.4052734375 4674.30712890625 3696.27880859375 4674.251953125 L 3687.5302734375 4670.43408203125 L 3674.32470703125 4674.29541015625 C 3674.232421875 4674.322265625 3674.13818359375 4674.33544921875 3674.0439453125 4674.33544921875 C 3673.90185546875 4674.33544921875 3673.7607421875 4674.30517578125 3673.6298828125 4674.24560546875 L 3665.2607421875 4670.43896484375 L 3652.5966796875 4674.2919921875 C 3652.50244140625 4674.32080078125 3652.404296875 4674.33544921875 3652.3056640625 4674.33544921875 L 3635.4296875 4674.33544921875 L 3624.251953125 4674.33544921875 L 3616.32470703125 4678.02001953125 C 3616.19287109375 4678.08154296875 3616.048828125 4678.11328125 3615.9033203125 4678.11328125 L 3611.06103515625 4678.11328125 L 3606.74365234375 4684.6376953125 C 3606.57861328125 4684.88623046875 3606.31201171875 4685.048828125 3606.015625 4685.080078125 C 3605.97998046875 4685.083984375 3605.9443359375 4685.0859375 3605.9091796875 4685.0859375 C 3605.6494140625 4685.0859375 3605.3984375 4684.984375 3605.21044921875 4684.80078125 L 3598.1630859375 4677.912109375 L 3592.47607421875 4674.525390625 L 3577.63525390625 4684.9052734375 C 3577.46435546875 4685.02490234375 3577.26416015625 4685.0859375 3577.06201171875 4685.0859375 C 3576.91455078125 4685.0859375 3576.76611328125 4685.05322265625 3576.62841796875 4684.98681640625 L 3562.5908203125 4678.22216796875 L 3554.97998046875 4681.837890625 C 3554.84521484375 4681.90185546875 3554.6982421875 4681.9345703125 3554.55078125 4681.9345703125 C 3554.47705078125 4681.9345703125 3554.40283203125 4681.92626953125 3554.32958984375 4681.90966796875 L 3537.8408203125 4678.1748046875 L 3526.10546875 4684.95166015625 C 3525.9521484375 4685.04052734375 3525.779296875 4685.0859375 3525.60546875 4685.0859375 C 3525.52099609375 4685.0859375 3525.43603515625 4685.0751953125 3525.35302734375 4685.0537109375 L 3513.59765625 4681.98876953125 L 3498.4287109375 4688.5263671875 C 3498.302734375 4688.58056640625 3498.16796875 4688.60791015625 3498.03271484375 4688.60791015625 C 3497.9482421875 4688.60791015625 3497.86328125 4688.59716796875 3497.7802734375 4688.57568359375 L 3484.53125 4685.11572265625 L 3469.64697265625 4688.58203125 C 3469.572265625 4688.59912109375 3469.49609375 4688.60791015625 3469.42041015625 4688.60791015625 C 3469.25390625 4688.60791015625 3469.0888671875 4688.56640625 3468.9404296875 4688.4853515625 L 3457.05078125 4681.990234375 L 3442.90771484375 4685.0302734375 L 3430.4775390625 4692.26611328125 C 3430.32470703125 4692.35498046875 3430.1513671875 4692.40185546875 3429.974609375 4692.40185546875 L 3424.0068359375 4692.40185546875 C 3423.85888671875 4692.40185546875 3423.71337890625 4692.369140625 3423.57958984375 4692.30615234375 L 3415.55029296875 4688.51171875 C 3415.41162109375 4688.4462890625 3415.2900390625 4688.35009765625 3415.1943359375 4688.22998046875 L 3412.69677734375 4685.0859375 L 3405.1708984375 4685.0859375 L 3401.50830078125 4688.21826171875 L 3396.31884765625 4700.126953125 C 3396.15771484375 4700.4970703125 3395.7939453125 4700.7275390625 3395.40283203125 4700.7275390625 C 3395.33642578125 4700.7275390625 3395.26904296875 4700.720703125 3395.20166015625 4700.70703125 L 3371.9755859375 4695.94580078125 L 3349.2705078125 4695.94580078125 L 3314.64697265625 4700.7021484375 L 3288.74951171875 4710.94091796875 C 3288.630859375 4710.9873046875 3288.50634765625 4711.0107421875 3288.38232421875 4711.0107421875 C 3288.2099609375 4711.0107421875 3288.0390625 4710.96630859375 3287.8857421875 4710.87890625 L 3270.1171875 4700.7275390625 L 3258.560546875 4700.7275390625 L 3236.07470703125 4710.92138671875 C 3235.943359375 4710.98095703125 3235.802734375 4711.0107421875 3235.66162109375 4711.0107421875 C 3235.5146484375 4711.0107421875 3235.3671875 4710.97802734375 3235.23095703125 4710.9130859375 L 3214.07470703125 4700.81298828125 L 3186.9873046875 4710.947265625 C 3186.87451171875 4710.98974609375 3186.755859375 4711.0107421875 3186.63671875 4711.0107421875 C 3186.53271484375 4711.0107421875 3186.42822265625 4710.994140625 3186.32763671875 4710.96142578125 L 3156 4701.10400390625 L 3156 5101.95703125 L 5073.65478515625 5101.95703125 L 5073.65478515625 4721.26318359375 L 5072.40625 4721.96435546875 C 5072.2568359375 4722.04833984375 5072.087890625 4722.09228515625 5071.91650390625 4722.09228515625 L 5068.46875 4722.09228515625 L 5066.205078125 4723.044921875 C 5066.08154296875 4723.0966796875 5065.94970703125 4723.123046875 5065.8173828125 4723.123046875 C 5065.7373046875 4723.123046875 5065.6572265625 4723.11328125 5065.5791015625 4723.09423828125 L 5061.3984375 4722.06787109375 L 5054.115234375 4720.53271484375 C 5054.10302734375 4720.5302734375 5054.0908203125 4720.52734375 5054.078125 4720.5244140625 L 5047.5654296875 4718.89013671875 C 5047.4443359375 4718.859375 5047.3291015625 4718.80615234375 5047.22705078125 4718.7333984375 L 5044.34375 4716.6708984375 L 5039.3037109375 4716.6708984375 L 5035.0390625 4718.8134765625 C 5034.8994140625 4718.88330078125 5034.74609375 4718.919921875 5034.59033203125 4718.919921875 L 5030.5625 4718.919921875 L 5025.25146484375 4718.919921875 C 5024.8857421875 4718.919921875 5024.548828125 4718.72021484375 5024.37353515625 4718.39892578125 L 5022.4150390625 4714.80810546875 L 5017.1171875 4714.80810546875 L 5013.9384765625 4716.5478515625 C 5013.830078125 4716.607421875 5013.71142578125 4716.646484375 5013.5888671875 4716.662109375 L 5007.2568359375 4717.4931640625 C 5007.2138671875 4717.4990234375 5007.169921875 4717.501953125 5007.12646484375 4717.501953125 C 5006.97119140625 4717.501953125 5006.8173828125 4717.4658203125 5006.67822265625 4717.3955078125 L 4997.4736328125 4712.7734375 C 4997.4375 4712.755859375 4997.40283203125 4712.7353515625 4997.369140625 4712.712890625 L 4992.623046875 4709.5625 L 4984.16015625 4708.123046875 C 4984.0185546875 4708.09912109375 4983.884765625 4708.044921875 4983.765625 4707.96435546875 L 4977.6201171875 4703.79296875 L 4969.78125 4701.751953125 L 4962.7041015625 4703.82861328125 C 4962.6123046875 4703.85546875 4962.517578125 4703.869140625 4962.4228515625 4703.869140625 C 4962.25537109375 4703.869140625 4962.0888671875 4703.82666015625 4961.939453125 4703.74462890625 L 4956.4873046875 4700.73583984375 L 4951.9833984375 4698.52587890625 L 4944.4423828125 4695.26953125 C 4944.29345703125 4695.20556640625 4944.1630859375 4695.10595703125 4944.06103515625 4694.97998046875 L 4941.9013671875 4692.3076171875 L 4935.421875 4690.29052734375 C 4935.197265625 4690.220703125 4935.0048828125 4690.07421875 4934.8779296875 4689.876953125 L 4933.42919921875 4687.62451171875 L 4933.4296875 4687.62451171875 L 4932.0693359375 4685.55615234375 L 4931.525390625 4685.02685546875 L 4928.5322265625 4685.86376953125 L 4921.2431640625 4688.8271484375 C 4921.1220703125 4688.876953125 4920.994140625 4688.90087890625 4920.86669921875 4688.90087890625 C 4920.6416015625 4688.90087890625 4920.41943359375 4688.8251953125 4920.23828125 4688.67919921875 L 4916.6279296875 4685.76416015625 L 4913.0234375 4683.986328125 L 4909.25048828125 4685.74462890625 L 4907.2744140625 4687.7802734375 C 4907.17578125 4687.8818359375 4907.05615234375 4687.96142578125 4906.92431640625 4688.013671875 L 4901.42578125 4690.18701171875 L 4899.5244140625 4692.140625 C 4899.392578125 4692.2763671875 4899.224609375 4692.3720703125 4899.04052734375 4692.416015625 L 4894.7265625 4693.44677734375 C 4894.650390625 4693.46484375 4894.57275390625 4693.47412109375 4894.49462890625 4693.47412109375 C 4894.4453125 4693.47412109375 4894.3955078125 4693.47021484375 4894.345703125 4693.462890625 L 4887.5654296875 4692.443359375 L 4884.39111328125 4692.443359375 L 4878.6162109375 4693.458984375 C 4878.55859375 4693.46923828125 4878.5009765625 4693.47412109375 4878.44287109375 4693.47412109375 L 4873.6884765625 4693.47412109375 C 4873.4248046875 4693.47412109375 4873.17236328125 4693.3701171875 4872.9853515625 4693.18505859375 L 4869.9150390625 4690.14892578125 L 4865.84326171875 4687.96484375 C 4865.69140625 4687.88330078125 4865.56298828125 4687.763671875 4865.470703125 4687.6181640625 L 4864.287109375 4685.74609375 L 4861.9921875 4684.94970703125 L 4858.09765625 4685.88818359375 C 4858.0205078125 4685.90673828125 4857.9423828125 4685.916015625 4857.86328125 4685.916015625 C 4857.8193359375 4685.916015625 4857.77490234375 4685.9130859375 4857.73095703125 4685.9072265625 L 4850.18603515625 4684.89990234375 C 4850.18212890625 4684.8994140625 4850.17822265625 4684.89892578125 4850.17431640625 4684.8984375 L 4843.2587890625 4683.89208984375 L 4838.29296875 4684.88916015625 C 4838.22802734375 4684.90234375 4838.162109375 4684.90869140625 4838.0966796875 4684.90869140625 C 4838.00927734375 4684.90869140625 4837.921875 4684.8974609375 4837.83740234375 4684.87451171875 L 4831.01611328125 4683.04736328125 L 4825.71142578125 4683.86572265625 C 4825.6611328125 4683.87353515625 4825.6103515625 4683.87744140625 4825.55908203125 4683.87744140625 L 4820.25146484375 4683.87744140625 C 4820.14892578125 4683.87744140625 4820.046875 4683.86181640625 4819.94921875 4683.83056640625 L 4817.4736328125 4683.04541015625 L 4810.53515625 4683.87060546875 C 4810.49609375 4683.875 4810.45654296875 4683.87744140625 4810.4169921875 4683.87744140625 C 4810.0771484375 4683.87744140625 4809.7568359375 4683.7041015625 4809.572265625 4683.412109375 L 4808.3173828125 4681.42822265625 L 4805.13134765625 4678.73828125 L 4798.9453125 4679.486328125 C 4798.9052734375 4679.4912109375 4798.865234375 4679.49365234375 4798.8251953125 4679.49365234375 C 4798.646484375 4679.49365234375 4798.4697265625 4679.44580078125 4798.314453125 4679.353515625 L 4793.88134765625 4676.720703125 L 4786.921875 4675.43505859375 C 4786.89208984375 4675.4296875 4786.86279296875 4675.42236328125 4786.833984375 4675.41455078125 L 4780.015625 4673.50439453125 C 4779.9541015625 4673.4873046875 4779.89501953125 4673.46435546875 4779.83837890625 4673.43603515625 L 4774.76318359375 4670.900390625 L 4767.982421875 4671.72216796875 C 4767.9423828125 4671.72705078125 4767.90234375 4671.7294921875 4767.8623046875 4671.7294921875 C 4767.8212890625 4671.7294921875 4767.7802734375 4671.72705078125 4767.7392578125 4671.7216796875 L 4760.814453125 4670.8642578125 C 4760.6806640625 4670.84765625 4760.5517578125 4670.80419921875 4760.435546875 4670.736328125 L 4756.62890625 4668.5263671875 L 4749.89111328125 4668.5263671875 C 4749.6015625 4668.5263671875 4749.32568359375 4668.40087890625 4749.1357421875 4668.181640625 L 4746.26123046875 4664.8681640625 C 4746.103515625 4664.68603515625 4746.0166015625 4664.45361328125 4746.0166015625 4664.212890625 L 4746.0166015625 4661.8291015625 L 4742.333984375 4660.5673828125 L 4734.400390625 4662.0966796875 C 4734.337890625 4662.10888671875 4734.2744140625 4662.11474609375 4734.2109375 4662.11474609375 C 4733.904296875 4662.11474609375 4733.609375 4661.97314453125 4733.41845703125 4661.7236328125 L 4731.05859375 4658.64990234375 L 4727.2822265625 4658.64990234375 C 4727.234375 4658.64990234375 4727.18701171875 4658.646484375 4727.1396484375 4658.6396484375 L 4720.02978515625 4657.61572265625 C 4719.9287109375 4657.60107421875 4719.8310546875 4657.5712890625 4719.7392578125 4657.52734375 L 4715.7666015625 4655.6171875 C 4715.55029296875 4655.51318359375 4715.37890625 4655.3349609375 4715.283203125 4655.115234375 L 4713.0908203125 4650.08154296875 L 4710.52978515625 4648.1357421875 C 4710.1904296875 4647.87841796875 4710.05224609375 4647.4345703125 4710.18408203125 4647.02978515625 L 4710.9951171875 4644.541015625 L 4707.0546875 4642.3701171875 C 4706.8505859375 4642.2578125 4706.6923828125 4642.0771484375 4706.6064453125 4641.86083984375 L 4706.0830078125 4640.53173828125 L 4701.978515625 4641.216796875 C 4701.923828125 4641.22607421875 4701.869140625 4641.23046875 4701.814453125 4641.23046875 C 4701.6943359375 4641.23046875 4701.57470703125 4641.208984375 4701.4619140625 4641.16650390625 L 4696.9033203125 4639.44970703125 L 4693.55322265625 4640.3759765625 C 4693.46533203125 4640.400390625 4693.3759765625 4640.412109375 4693.28662109375 4640.412109375 C 4693.0732421875 4640.412109375 4692.8623046875 4640.34326171875 4692.6875 4640.21240234375 L 4688.259765625 4636.896484375 L 4682.7998046875 4636.1123046875 L 4678.771484375 4636.1123046875 L 4676.83349609375 4638.201171875 C 4676.64453125 4638.4052734375 4676.37890625 4638.521484375 4676.1005859375 4638.521484375 L 4669.0751953125 4638.521484375 L 4662.53125 4638.521484375 C 4662.4541015625 4638.521484375 4662.3779296875 4638.5126953125 4662.302734375 4638.4951171875 L 4652.0390625 4636.0859375 C 4651.97607421875 4636.0712890625 4651.9140625 4636.0498046875 4651.85498046875 4636.0234375 L 4644.4306640625 4632.66064453125 L 4633.33740234375 4632.66064453125 C 4633.1748046875 4632.66064453125 4633.0146484375 4632.62109375 4632.87060546875 4632.54541015625 L 4626.693359375 4629.28515625 L 4624.08056640625 4628.10791015625 L 4618.11962890625 4626.5419921875 C 4618.005859375 4626.51220703125 4617.8984375 4626.46240234375 4617.8017578125 4626.39501953125 L 4612.8251953125 4622.92578125 C 4612.8173828125 4622.92041015625 4612.80908203125 4622.91455078125 4612.8017578125 4622.90869140625 L 4608.3212890625 4619.5869140625 C 4608.3193359375 4619.5859375 4608.31787109375 4619.5849609375 4608.31640625 4619.583984375 L 4605.384765625 4617.38525390625 L 4601.9697265625 4617.38525390625 C 4601.59814453125 4617.38525390625 4601.2568359375 4617.17919921875 4601.08447265625 4616.85009765625 L 4599.42138671875 4613.68359375 L 4594.5595703125 4612.232421875 C 4594.44775390625 4612.19873046875 4594.3427734375 4612.14599609375 4594.2490234375 4612.07666015625 L 4589.4111328125 4608.4814453125 L 4584.861328125 4606.4248046875 L 4579.1123046875 4604.677734375 L 4574.939453125 4605.52490234375 C 4574.873046875 4605.53857421875 4574.80615234375 4605.544921875 4574.740234375 4605.544921875 C 4574.44873046875 4605.544921875 4574.16796875 4605.41748046875 4573.97607421875 4605.18994140625 L 4570.2783203125 4600.806640625 C 4570.2470703125 4600.76953125 4570.21826171875 4600.72998046875 4570.19287109375 4600.68896484375 L 4567.97412109375 4597.107421875 L 4562.54443359375 4596.04345703125 C 4562.45166015625 4596.025390625 4562.361328125 4595.994140625 4562.27734375 4595.95068359375 L 4556.4345703125 4592.92919921875 C 4556.4052734375 4592.9140625 4556.376953125 4592.8974609375 4556.349609375 4592.8798828125 L 4550.5068359375 4589.0888671875 L 4544.0244140625 4586.08544921875 C 4543.9501953125 4586.05029296875 4543.8798828125 4586.0068359375 4543.81591796875 4585.955078125 L 4537.890625 4581.15673828125 L 4531.720703125 4577.32421875 C 4531.69921875 4577.31103515625 4531.6787109375 4577.296875 4531.65869140625 4577.2822265625 L 4525.0341796875 4572.4482421875 L 4518.556640625 4570.060546875 C 4518.5263671875 4570.04931640625 4518.4970703125 4570.037109375 4518.46875 4570.0234375 L 4510.591796875 4566.234375 C 4510.4990234375 4566.189453125 4510.4130859375 4566.130859375 4510.33837890625 4566.0595703125 L 4505.32275390625 4561.3173828125 L 4500.1162109375 4559.14111328125 L 4496.3876953125 4559.95654296875 C 4496.31640625 4559.9716796875 4496.2451171875 4559.9794921875 4496.173828125 4559.9794921875 C 4495.953125 4559.9794921875 4495.736328125 4559.90625 4495.5595703125 4559.7685546875 L 4491.3232421875 4556.47021484375 L 4488.0908203125 4554.01416015625 L 4481.404296875 4551.91845703125 C 4481.18701171875 4551.8505859375 4480.99951171875 4551.71044921875 4480.87255859375 4551.521484375 L 4478.15771484375 4547.47509765625 L 4476.2041015625 4545.1474609375 L 4474.4091796875 4543.9970703125 L 4471.7333984375 4543.9970703125 L 4470.44140625 4547.24365234375 C 4470.2900390625 4547.6240234375 4469.921875 4547.8740234375 4469.5126953125 4547.8740234375 L 4465.66455078125 4547.8740234375 L 4461.64453125 4547.8740234375 C 4461.3779296875 4547.8740234375 4461.1220703125 4547.767578125 4460.9345703125 4547.578125 L 4456.2431640625 4542.8486328125 L 4448.34375 4540.09716796875 L 4440.7861328125 4538.35400390625 C 4440.623046875 4538.31591796875 4440.47119140625 4538.23779296875 4440.345703125 4538.1259765625 L 4435.7744140625 4534.05126953125 L 4429.8173828125 4529.94580078125 C 4429.7587890625 4529.90576171875 4429.705078125 4529.859375 4429.65625 4529.8076171875 L 4425.31640625 4525.1923828125 L 4418.31396484375 4522.07080078125 C 4418.16845703125 4522.00634765625 4418.04052734375 4521.9072265625 4417.94091796875 4521.783203125 L 4413.40185546875 4516.1201171875 L 4408.3330078125 4511.82373046875 L 4401.9990234375 4507.66796875 C 4401.97119140625 4507.6494140625 4401.9443359375 4507.63037109375 4401.9189453125 4507.609375 L 4395.9619140625 4502.79541015625 C 4395.951171875 4502.78662109375 4395.93994140625 4502.77734375 4395.9287109375 4502.767578125 L 4388.79833984375 4496.4765625 C 4388.7890625 4496.46826171875 4388.77978515625 4496.4599609375 4388.7705078125 4496.451171875 L 4383.005859375 4490.96826171875 L 4377.7890625 4487.72265625 C 4377.7509765625 4487.69921875 4377.71484375 4487.6728515625 4377.6796875 4487.64404296875 L 4371.91015625 4482.8720703125 L 4366.41552734375 4478.71142578125 C 4366.3583984375 4478.6689453125 4366.306640625 4478.61962890625 4366.259765625 4478.56591796875 L 4363.189453125 4474.986328125 L 4358.2578125 4474.15234375 C 4358.0625 4474.119140625 4357.880859375 4474.02880859375 4357.7373046875 4473.892578125 L 4352.57568359375 4469.0068359375 C 4352.4931640625 4468.92919921875 4352.4248046875 4468.837890625 4352.373046875 4468.73681640625 L 4350.6005859375 4465.279296875 L 4345.7646484375 4463.525390625 C 4345.66796875 4463.490234375 4345.5771484375 4463.44091796875 4345.49560546875 4463.3779296875 L 4340.79443359375 4459.76171875 L 4336.4228515625 4456.5107421875 L 4334.0966796875 4454.86962890625 L 4329.265625 4454.86962890625 L 4326.09814453125 4456.57861328125 C 4326.041015625 4456.60986328125 4325.98046875 4456.634765625 4325.91845703125 4456.65380859375 L 4322.625 4457.6728515625 C 4322.62109375 4457.67431640625 4322.6171875 4457.67578125 4322.61328125 4457.6767578125 L 4315 4459.92724609375 C 4314.9541015625 4459.94091796875 4314.9072265625 4459.95068359375 4314.8603515625 4459.9580078125 L 4308.18798828125 4460.9287109375 C 4308.140625 4460.935546875 4308.09228515625 4460.93896484375 4308.0439453125 4460.93896484375 C 4308.013671875 4460.93896484375 4307.982421875 4460.9375 4307.9521484375 4460.9345703125 L 4297.5185546875 4459.9716796875 L 4284.388671875 4460.9365234375 C 4284.3642578125 4460.93798828125 4284.34033203125 4460.93896484375 4284.31591796875 4460.93896484375 C 4284.26123046875 4460.93896484375 4284.20703125 4460.9345703125 4284.15234375 4460.92578125 L 4278.2705078125 4459.955078125 C 4278.1474609375 4459.9345703125 4278.029296875 4459.8916015625 4277.921875 4459.82763671875 L 4274.3251953125 4457.6865234375 L 4265.7421875 4456.69189453125 C 4265.6630859375 4456.68310546875 4265.5859375 4456.66455078125 4265.51171875 4456.63720703125 L 4260.5498046875 4454.8076171875 C 4260.47216796875 4454.779296875 4260.3984375 4454.7412109375 4260.33056640625 4454.6943359375 L 4253.97412109375 4450.34130859375 L 4248.720703125 4448.0625 C 4248.6884765625 4448.04833984375 4248.6572265625 4448.03271484375 4248.62646484375 4448.01513671875 L 4242.7587890625 4444.693359375 L 4237.5576171875 4441.88330078125 L 4232.83154296875 4440.95751953125 L 4229.1142578125 4440.95751953125 L 4224.8212890625 4441.8818359375 L 4223.2734375 4442.66064453125 L 4220.4599609375 4444.63818359375 C 4220.29150390625 4444.7568359375 4220.0908203125 4444.8203125 4219.884765625 4444.8203125 L 4215.09912109375 4444.8203125 C 4214.99267578125 4444.8203125 4214.88671875 4444.80322265625 4214.7861328125 4444.77001953125 L 4211.28759765625 4443.61669921875 L 4208.892578125 4442.82958984375 L 4204.42578125 4443.650390625 C 4204.3662109375 4443.66162109375 4204.3056640625 4443.6669921875 4204.2451171875 4443.6669921875 C 4204.17822265625 4443.6669921875 4204.111328125 4443.66015625 4204.044921875 4443.646484375 L 4199.78955078125 4442.779296875 C 4199.7294921875 4442.767578125 4199.6708984375 4442.74951171875 4199.61376953125 4442.7265625 L 4195.0673828125 4440.88427734375 C 4194.9931640625 4440.8544921875 4194.92333984375 4440.81591796875 4194.8583984375 4440.76904296875 L 4191.361328125 4438.2509765625 L 4187.9716796875 4437.25830078125 C 4187.96875 4437.25732421875 4187.9658203125 4437.25634765625 4187.96337890625 4437.255859375 L 4185.0400390625 4436.373046875 C 4184.9228515625 4436.33740234375 4184.8134765625 4436.28125 4184.71728515625 4436.20654296875 L 4183.259765625 4435.0791015625 L 4181.3779296875 4435.0791015625 M 4181.08251953125 4434.0791015625 L 4183.60107421875 4434.0791015625 L 4185.3291015625 4435.41552734375 L 4188.25244140625 4436.29833984375 L 4191.806640625 4437.33935546875 L 4195.44287109375 4439.95751953125 L 4199.9892578125 4441.7998046875 L 4204.2451171875 4442.6669921875 L 4208.96240234375 4441.7998046875 L 4211.60009765625 4442.6669921875 L 4215.09912109375 4443.8203125 L 4219.884765625 4443.8203125 L 4222.75927734375 4441.7998046875 L 4224.48583984375 4440.93115234375 L 4229.00732421875 4439.95751953125 L 4232.9287109375 4439.95751953125 L 4237.8984375 4440.93115234375 L 4243.24609375 4443.8203125 L 4249.119140625 4447.14501953125 L 4254.45947265625 4449.4619140625 L 4260.8955078125 4453.86962890625 L 4265.857421875 4455.69873046875 L 4274.65283203125 4456.7177734375 L 4278.43359375 4458.96826171875 L 4284.3154296875 4459.93896484375 L 4297.52734375 4458.96826171875 L 4308.0439453125 4459.93896484375 L 4314.71630859375 4458.96826171875 L 4322.32958984375 4456.7177734375 L 4325.623046875 4455.69873046875 L 4329.01318359375 4453.86962890625 L 4334.4140625 4453.86962890625 L 4337.0068359375 4455.69873046875 L 4341.4033203125 4458.96826171875 L 4346.10546875 4462.58544921875 L 4351.31103515625 4464.47314453125 L 4353.26318359375 4468.28076171875 L 4358.4248046875 4473.16650390625 L 4363.712890625 4474.06103515625 L 4367.01904296875 4477.91455078125 L 4372.5322265625 4482.0888671875 L 4378.3173828125 4486.87353515625 L 4383.62109375 4490.17333984375 L 4389.4599609375 4495.7265625 L 4396.5908203125 4502.017578125 L 4402.54736328125 4506.83154296875 L 4408.9326171875 4511.021484375 L 4414.12158203125 4515.41943359375 L 4418.72119140625 4521.15771484375 L 4425.90771484375 4524.36083984375 L 4430.384765625 4529.12255859375 L 4436.3935546875 4533.263671875 L 4441.01123046875 4537.37939453125 L 4448.6201171875 4539.134765625 L 4456.79052734375 4541.98046875 L 4461.64453125 4546.8740234375 L 4465.66455078125 4546.8740234375 L 4469.5126953125 4546.8740234375 L 4471.05517578125 4542.9970703125 L 4474.70263671875 4542.9970703125 L 4476.87158203125 4544.3876953125 L 4478.95849609375 4546.8740234375 L 4481.703125 4550.96435546875 L 4488.556640625 4553.11181640625 L 4491.9326171875 4555.67724609375 L 4496.173828125 4558.9794921875 L 4500.2109375 4558.0966796875 L 4505.87744140625 4560.46533203125 L 4511.025390625 4565.3330078125 L 4518.90234375 4569.1220703125 L 4525.5107421875 4571.55810546875 L 4532.248046875 4576.474609375 L 4538.470703125 4580.34033203125 L 4544.4453125 4585.177734375 L 4550.99072265625 4588.2109375 L 4556.8935546875 4592.041015625 L 4562.73681640625 4595.06201171875 L 4568.59423828125 4596.2099609375 L 4571.04296875 4600.162109375 L 4574.740234375 4604.544921875 L 4579.1611328125 4603.6474609375 L 4585.21484375 4605.4873046875 L 4589.9208984375 4607.61474609375 L 4594.845703125 4611.27392578125 L 4600.11083984375 4612.845703125 L 4601.9697265625 4616.38525390625 L 4605.7177734375 4616.38525390625 L 4608.91650390625 4618.78369140625 L 4613.39697265625 4622.10546875 L 4618.37353515625 4625.57470703125 L 4624.4150390625 4627.162109375 L 4627.134765625 4628.3876953125 L 4633.33740234375 4631.66064453125 L 4644.64697265625 4631.66064453125 L 4652.267578125 4635.1123046875 L 4662.53125 4637.521484375 L 4669.0751953125 4637.521484375 L 4676.1005859375 4637.521484375 L 4678.3349609375 4635.1123046875 L 4682.8701171875 4635.1123046875 L 4688.65478515625 4635.943359375 L 4693.28662109375 4639.412109375 L 4696.95068359375 4638.39892578125 L 4701.81396484375 4640.23046875 L 4706.716796875 4639.412109375 L 4707.537109375 4641.494140625 L 4712.20263671875 4644.064453125 L 4711.134765625 4647.33984375 L 4713.90380859375 4649.443359375 L 4716.19970703125 4654.7158203125 L 4720.17236328125 4656.6259765625 L 4727.2822265625 4657.64990234375 L 4731.55126953125 4657.64990234375 L 4734.21142578125 4661.11474609375 L 4742.40625 4659.53515625 L 4747.0166015625 4661.11474609375 L 4747.0166015625 4664.212890625 L 4749.89111328125 4667.5263671875 L 4756.8984375 4667.5263671875 L 4760.9375 4669.87158203125 L 4767.8623046875 4670.7294921875 L 4774.94140625 4669.87158203125 L 4780.28515625 4672.54150390625 L 4787.103515625 4674.45166015625 L 4794.23828125 4675.77001953125 L 4798.8251953125 4678.49365234375 L 4805.443359375 4677.693359375 L 4809.08056640625 4680.763671875 L 4810.41748046875 4682.87744140625 L 4817.56982421875 4682.02685546875 L 4820.25146484375 4682.87744140625 L 4825.55908203125 4682.87744140625 L 4831.07177734375 4682.02685546875 L 4838.09619140625 4683.90869140625 L 4843.23095703125 4682.87744140625 L 4850.318359375 4683.90869140625 L 4857.86328125 4684.916015625 L 4862.04345703125 4683.90869140625 L 4864.94482421875 4684.916015625 L 4866.31591796875 4687.08349609375 L 4870.515625 4689.3359375 L 4873.6884765625 4692.47412109375 L 4878.44287109375 4692.47412109375 L 4884.30322265625 4691.443359375 L 4887.6396484375 4691.443359375 L 4894.49462890625 4692.47412109375 L 4898.80810546875 4691.443359375 L 4900.85888671875 4689.3359375 L 4906.556640625 4687.08349609375 L 4908.6611328125 4684.916015625 L 4913.03564453125 4682.87744140625 L 4917.1689453125 4684.916015625 L 4920.86669921875 4687.90087890625 L 4928.2080078125 4684.916015625 L 4931.81103515625 4683.90869140625 L 4932.8447265625 4684.916015625 L 4934.2705078125 4687.08349609375 L 4935.71875 4689.3359375 L 4942.48876953125 4691.443359375 L 4944.8388671875 4694.3515625 L 4952.4033203125 4697.6181640625 L 4956.94677734375 4699.84716796875 L 4962.4228515625 4702.869140625 L 4969.765625 4700.71484375 L 4978.03955078125 4702.869140625 L 4984.32763671875 4707.13720703125 L 4992.99951171875 4708.61181640625 L 4997.92236328125 4711.8798828125 L 5007.126953125 4716.501953125 L 5013.45849609375 4715.6708984375 L 5016.861328125 4713.80810546875 L 5023.00830078125 4713.80810546875 L 5025.25146484375 4717.919921875 L 5030.5625 4717.919921875 L 5034.59033203125 4717.919921875 L 5039.06689453125 4715.6708984375 L 5044.6650390625 4715.6708984375 L 5047.80908203125 4717.919921875 L 5054.32177734375 4719.55419921875 L 5061.619140625 4721.09228515625 L 5065.8173828125 4722.123046875 L 5068.2666015625 4721.09228515625 L 5071.91650390625 4721.09228515625 L 5074.65478515625 4719.55419921875 L 5074.65478515625 5102.95703125 L 3155 5102.95703125 L 3155 4699.7275390625 L 3186.63671875 4710.0107421875 L 3214.1220703125 4699.7275390625 L 3235.66162109375 4710.0107421875 L 3258.3447265625 4699.7275390625 L 3270.3828125 4699.7275390625 L 3288.3818359375 4710.0107421875 L 3314.3916015625 4699.7275390625 L 3349.2021484375 4694.94580078125 L 3372.076171875 4694.94580078125 L 3395.40234375 4699.7275390625 L 3400.68359375 4687.60791015625 L 3404.8017578125 4684.0859375 L 3413.1796875 4684.0859375 L 3415.9775390625 4687.60791015625 L 3424.0068359375 4691.40185546875 L 3429.974609375 4691.40185546875 L 3442.5419921875 4684.0859375 L 3457.2041015625 4680.9345703125 L 3469.419921875 4687.60791015625 L 3484.544921875 4684.0859375 L 3498.033203125 4687.60791015625 L 3513.517578125 4680.9345703125 L 3525.60546875 4684.0859375 L 3537.6796875 4677.11328125 L 3554.55078125 4680.9345703125 L 3562.59375 4677.11328125 L 3577.0625 4684.0859375 L 3592.4326171875 4673.33544921875 L 3598.7763671875 4677.11328125 L 3605.90966796875 4684.0859375 L 3610.5234375 4677.11328125 L 3615.9033203125 4677.11328125 L 3624.03076171875 4673.33544921875 L 3635.4296875 4673.33544921875 L 3652.3056640625 4673.33544921875 L 3665.3310546875 4669.37255859375 L 3674.0439453125 4673.33544921875 L 3687.59765625 4669.37255859375 L 3696.6787109375 4673.33544921875 L 3713.4306640625 4669.37255859375 L 3718.09326171875 4663.28125 L 3727.2158203125 4663.28125 L 3738.1748046875 4656.41259765625 L 3751.4814453125 4649.333984375 L 3761.623046875 4649.333984375 L 3769.78515625 4645.5517578125 L 3773.33056640625 4640.1865234375 L 3778.5126953125 4640.1865234375 L 3793.6494140625 4633.78564453125 L 3800.60302734375 4631.19287109375 L 3810.1376953125 4631.19287109375 L 3817.99365234375 4623.9833984375 L 3817.99365234375 4617.76953125 L 3833.0322265625 4614.9189453125 L 3844.51953125 4611.24853515625 L 3854.7900390625 4602.6474609375 L 3873.66796875 4598.064453125 L 3888.55078125 4588.97900390625 L 3898.9296875 4592.5537109375 L 3904.884765625 4592.5537109375 L 3913.115234375 4585.65185546875 L 3918.861328125 4576.9638671875 L 3936.8505859375 4580.0146484375 C 3936.8505859375 4580.0146484375 3938.314453125 4571.69287109375 3940.6376953125 4571.3994140625 C 3941.41162109375 4571.3017578125 3942.9951171875 4571.26904296875 3944.76123046875 4571.26904296875 C 3948.29443359375 4571.26904296875 3952.5615234375 4571.3994140625 3952.5615234375 4571.3994140625 L 3965.853515625 4568.88720703125 L 3974.408203125 4562.22021484375 L 3977.59619140625 4554.5576171875 L 3983.98046875 4554.5576171875 L 3991.017578125 4546.923828125 L 3992.15673828125 4541.44091796875 L 3998.5048828125 4540.46728515625 L 4005.52734375 4533.2099609375 L 4006.9267578125 4528.83154296875 L 4008.89208984375 4526.51171875 L 4013.3828125 4525.27197265625 L 4015.2080078125 4519.8994140625 L 4016.6123046875 4515.20458984375 L 4020.1259765625 4516.9599609375 L 4022.7265625 4511.2919921875 L 4027.44970703125 4509.30810546875 L 4029.5908203125 4504.76123046875 L 4033.8447265625 4502.73291015625 L 4036.90380859375 4499.56396484375 L 4040.40673828125 4499.56396484375 L 4045.287109375 4495.900390625 L 4052.751953125 4493.82568359375 L 4060.205078125 4492.22802734375 L 4067.46337890625 4485.205078125 L 4073.515625 4480.7744140625 L 4079.044921875 4478.92822265625 L 4085.01171875 4473.607421875 L 4090.89892578125 4471.22705078125 L 4096.28076171875 4466.56689453125 L 4103.642578125 4464.734375 L 4108.08740234375 4461.04736328125 L 4113.1025390625 4461.04736328125 L 4117.7666015625 4459.93896484375 L 4124.58935546875 4459.93896484375 L 4130.36279296875 4458.96826171875 L 4136.3232421875 4459.93896484375 L 4140.796875 4456.7177734375 L 4145.650390625 4455.69873046875 L 4148.24072265625 4452.02490234375 L 4154.9306640625 4452.02490234375 L 4159.1923828125 4448.140625 L 4163.79736328125 4449.4619140625 L 4165.0869140625 4445.00341796875 L 4170.96435546875 4442.6669921875 L 4175.5419921875 4440.93115234375 L 4177.81689453125 4437.33935546875 L 4179.01611328125 4435.41552734375 L 4181.08251953125 4434.0791015625 Z"/></g></g></svg>