<svg xmlns="http://www.w3.org/2000/svg" xmlns:xlink="http://www.w3.org/1999/xlink" width="78" height="98" viewBox="0 0 78 98"><defs><style>.a{filter:url(#a);}</style><filter id="a" x="0" y="0" width="78" height="98" filterUnits="userSpaceOnUse"><feOffset dy="3" input="SourceAlpha"/><feGaussianBlur stdDeviation="3" result="b"/><feFlood flood-opacity="0.161"/><feComposite operator="in" in2="b"/><feComposite in="SourceGraphic"/></filter></defs><g class="a" transform="matrix(1, 0, 0, 1, 0, 0)"><path d="M58,80H2a2,2,0,0,1-2-2V2A2,2,0,0,1,2,0H48L60,12V78A2,2,0,0,1,58,80ZM7.5,5A2.568,2.568,0,0,0,5,7.626V72.376A2.567,2.567,0,0,0,7.5,75h45A2.567,2.567,0,0,0,55,72.376v-56L44.167,5ZM30.092,65.715c-.033,0-.067,0-.1,0l-.084,0a2.427,2.427,0,0,1-1.767-.769l-6.484-6.806a2.72,2.72,0,0,1,0-3.711,2.417,2.417,0,0,1,3.535,0L27.5,56.853V46.876a2.5,2.5,0,1,1,5,0V56.85l2.306-2.421a2.419,2.419,0,0,1,3.537,0,2.721,2.721,0,0,1,0,3.713l-6.482,6.8A2.429,2.429,0,0,1,30.092,65.715ZM45,36.067a.4.4,0,0,1-.25-.087l-3.08-2.436-3.08,2.436a.4.4,0,0,1-.249.087h-.008a.4.4,0,0,1-.25-.087L35,33.543l-3.08,2.436a.4.4,0,0,1-.249.087h-.008a.4.4,0,0,1-.248-.087l-3.081-2.436-3.08,2.436a.407.407,0,0,1-.249.087H25a.4.4,0,0,1-.249-.087l-3.08-2.436-3.08,2.436a.4.4,0,0,1-.249.087h-.008a.4.4,0,0,1-.25-.087l-3.327-2.633a.455.455,0,0,1-.082-.614A.407.407,0,0,1,15,32.558a.4.4,0,0,1,.251.089l3.08,2.436,3.08-2.436a.405.405,0,0,1,.2-.085h.005a.37.37,0,0,1,.054,0,.4.4,0,0,1,.251.089L25,35.084l3.08-2.436a.386.386,0,0,1,.2-.085.364.364,0,0,1,.054,0,.4.4,0,0,1,.25.089l3.08,2.436,3.079-2.436a.411.411,0,0,1,.205-.085.3.3,0,0,1,.049,0,.4.4,0,0,1,.253.089l3.08,2.436,3.08-2.436a.394.394,0,0,1,.191-.083.39.39,0,0,1,.317.082l3.327,2.633a.454.454,0,0,1,.082.613A.409.409,0,0,1,45,36.067Zm0-7a.4.4,0,0,1-.25-.088l-3.08-2.435-3.08,2.435a.4.4,0,0,1-.249.088h-.008a.4.4,0,0,1-.25-.088L35,26.543l-3.08,2.435a.4.4,0,0,1-.249.088h-.008a.394.394,0,0,1-.248-.088l-3.081-2.435-3.08,2.435a.4.4,0,0,1-.249.088H25a.4.4,0,0,1-.249-.088l-3.08-2.435-3.08,2.435a.4.4,0,0,1-.249.088h-.008a.4.4,0,0,1-.25-.088l-3.327-2.632a.452.452,0,0,1-.082-.613A.408.408,0,0,1,15,25.559a.4.4,0,0,1,.25.088l3.08,2.436,3.08-2.436a.4.4,0,0,1,.249-.087h.008a.4.4,0,0,1,.25.087L25,28.084l3.08-2.436a.394.394,0,0,1,.248-.087h.008a.4.4,0,0,1,.25.087l3.08,2.436,3.079-2.436A.4.4,0,0,1,35,25.56H35a.4.4,0,0,1,.25.087l3.08,2.436,3.08-2.436a.4.4,0,0,1,.249-.087h.008a.4.4,0,0,1,.25.087l3.327,2.633a.454.454,0,0,1,.082.613A.409.409,0,0,1,45,29.066Zm0-7a.4.4,0,0,1-.25-.088l-3.08-2.436-3.08,2.435a.424.424,0,0,1-.258.089.4.4,0,0,1-.249-.088L35,19.543l-3.08,2.435a.413.413,0,0,1-.193.085.491.491,0,0,1-.063,0,.4.4,0,0,1-.25-.088l-3.081-2.437-3.08,2.436a.412.412,0,0,1-.193.084.406.406,0,0,1-.066.005.394.394,0,0,1-.248-.088l-3.08-2.436-3.08,2.435a.424.424,0,0,1-.258.089.4.4,0,0,1-.249-.088l-3.327-2.632a.451.451,0,0,1-.082-.613A.408.408,0,0,1,15,18.559a.4.4,0,0,1,.25.088l3.08,2.436,3.08-2.436a.4.4,0,0,1,.254-.088.408.408,0,0,1,.254.088L25,21.083l3.081-2.436a.4.4,0,0,1,.253-.088.408.408,0,0,1,.254.088l3.079,2.436,3.08-2.436a.409.409,0,0,1,.508,0l3.08,2.436,3.08-2.436a.4.4,0,0,1,.254-.088.408.408,0,0,1,.254.088l3.327,2.632a.455.455,0,0,1,.082.614A.411.411,0,0,1,45,22.067Z" transform="translate(9 6)"/></g></svg>