<svg xmlns="http://www.w3.org/2000/svg" xmlns:xlink="http://www.w3.org/1999/xlink" width="1917" height="352" viewBox="0 0 1917 352"><defs><style>.a{clip-path:url(#b);}.b{fill:#1d1d1d;stroke:#c02640;stroke-linecap:round;stroke-linejoin:round;}</style><clipPath id="b"><rect width="1917" height="352"/></clipPath></defs><g id="a" class="a"><path class="b" d="M1179,4530.113h31.274V4496.69h24.25V4508.2h22.85v21.917h39.542v-62.163H1319v62.163h22.183V4496.69h15.766v-19.817h13.114v19.817h13.544v33.423l35.015-17.4,47.515-4.519v4.519l11.373,17.4V4508.2h32.37v21.917h33.482v-17.4h61.666v-35.842h31.511V4445.72h35.386v22.23h18.212v28.739h30.14v-28.739h34.63v19.5h11.729V4435.57H1796.7v51.878h31.689v42.666l44.9-26.479v-35.684h36.312v-22.23h29.725v31.152h37.438v19.817h27.777v-28.739h12.129V4420.34h30.925v37.87h14.448v29.238h19.545v42.666l31.5-109.773-15.263-60.71h-16.241l-11.143-15.751,11.143-16.712h16.241l22.263-16.28,22.315,16.28h14.907l11.277,16.712-11.277,15.751H2142.4l-14,60.71,33.184,101.786V4458.21h15.3v-37.87h13.853v-48.517h11.88v-27.945h39.059V4445.72h20.575v-25.38h12.223V4385.2h58.312v35.136h13.677v67.108H2362V4371.823l19.588-27.945,22.869,27.945h13.729v31.571h37.262v32.175H2475.2v-15.23h16.337V4385.2h14.635v-25.574h18.419V4385.2h16.249v18.191h17.513v54.815h12.844v-22.64h64.829v32.381h47.162v19.5h19.53v-19.5h22.854v-22.23h18.193v-25.38h56.945v47.611h37.613v19.5h50.231V4435.57h29.357V4385.2h30.606v82.747h35.37v19.5h39.666V4458.21h29.773v38.48h24.191v33.423h20.078V4664.1H1179Z" transform="translate(-1180 -4310.758)"/></g></svg>