<svg xmlns="http://www.w3.org/2000/svg" xmlns:xlink="http://www.w3.org/1999/xlink" width="97" height="50" viewBox="0 0 97 50"><defs><style>.a{clip-path:url(#b);}.b{fill:#fff;opacity:0.196;}</style><clipPath id="b"><rect width="97" height="50"/></clipPath></defs><g id="a" class="a"><g transform="translate(-10 -2901)"><path class="b" d="M-1174-1868v-4h-5l3.5-7h-2.5l3-6h-2l5-10,5,10h-2l3,6h-2.5l3.5,7h-5v4Z" transform="translate(1189 4809)"/><path class="b" d="M-1174-1868v-4h-5l3.5-7h-2.5l3-6h-2l5-10,5,10h-2l3,6h-2.5l3.5,7h-5v4Z" transform="translate(1237 4809)"/><path class="b" d="M-1174-1868v-4h-5l3.5-7h-2.5l3-6h-2l5-10,5,10h-2l3,6h-2.5l3.5,7h-5v4Z" transform="translate(1261 4796)"/><path class="b" d="M-1174-1868v-4h-5l3.5-7h-2.5l3-6h-2l5-10,5,10h-2l3,6h-2.5l3.5,7h-5v4Z" transform="translate(1213 4796)"/></g></g></svg>